<?xml version="1.0" encoding="UTF-8" standalone="no"?>
<!-- Generator: Adobe Illustrator 17.0.0, SVG Export Plug-In . SVG Version: 6.00 Build 0)  -->

<svg
   xmlns:dc="http://purl.org/dc/elements/1.1/"
   xmlns:cc="http://creativecommons.org/ns#"
   xmlns:rdf="http://www.w3.org/1999/02/22-rdf-syntax-ns#"
   xmlns:svg="http://www.w3.org/2000/svg"
   xmlns="http://www.w3.org/2000/svg"
   xmlns:sodipodi="http://sodipodi.sourceforge.net/DTD/sodipodi-0.dtd"
   xmlns:inkscape="http://www.inkscape.org/namespaces/inkscape"
   version="1.1"
   id="Layer_1"
   x="0px"
   y="0px"
   width="512"
   height="512"
   viewBox="0 0 512 512"
   enable-background="new 0 0 200 200"
   xml:space="preserve"
   inkscape:version="0.91 r"
   sodipodi:docname="automation.svg"><metadata
     id="metadata21"><rdf:RDF><cc:Work
         rdf:about=""><dc:format>image/svg+xml</dc:format><dc:type
           rdf:resource="http://purl.org/dc/dcmitype/StillImage" /><dc:title></dc:title></cc:Work></rdf:RDF></metadata><defs
     id="defs19" /><sodipodi:namedview
     pagecolor="#ffffff"
     bordercolor="#666666"
     borderopacity="1"
     objecttolerance="10"
     gridtolerance="10"
     guidetolerance="10"
     inkscape:pageopacity="0"
     inkscape:pageshadow="2"
     inkscape:window-width="1855"
     inkscape:window-height="1056"
     id="namedview17"
     showgrid="false"
     inkscape:zoom="1"
     inkscape:cx="256"
     inkscape:cy="256"
     inkscape:window-x="65"
     inkscape:window-y="24"
     inkscape:window-maximized="1"
     inkscape:current-layer="Layer_1" /><circle
     style="fill:#caccb6;fill-opacity:1"
     id="path4149"
     cx="255.50847"
     cy="256.49152"
     r="256" /><g
     id="g3"
     transform="matrix(1.5527363,0,0,1.5527363,101.48886,101.76023)"
     style="fill:#8e9e82;fill-opacity:1"><path
       d="m 157.503,138.104 -3.089,-17.518 -10.792,-0.761 c -1.341,-3.078 -3,-5.984 -4.931,-8.684 l 4.693,-9.638 -13.627,-11.434 -8.478,6.152 c -3.069,-1.545 -6.322,-3.044 -9.725,-3.902 L 109.041,82 91.253,82 88.777,92.172 c -3.505,0.833 -6.861,2.182 -10.019,3.74 l -8.215,-5.893 -13.627,11.468 4.444,9.143 c -2.1,2.859 -3.887,5.967 -5.316,9.261 l -10.14,0.72 -3.089,17.52 9.442,4.212 c 0.255,3.541 0.891,6.976 1.876,10.262 l -7.48,7.233 8.894,15.405 10.255,-2.933 c 2.349,2.392 4.948,4.535 7.755,6.392 l -1.118,10.702 16.716,6.084 6.152,-9.108 c 1.496,0.141 3.011,0.221 4.544,0.221 1.744,0 3.465,-0.1 5.16,-0.282 l 6.186,9.159 16.716,-6.084 -1.159,-11.097 c 2.638,-1.803 5.08,-3.867 7.301,-6.15 l 10.736,3.071 8.894,-15.405 -7.975,-7.711 c 0.88,-3.053 1.461,-6.231 1.714,-9.502 l 10.079,-4.496 z m -57.652,38.489 c -20.835,0 -37.724,-16.89 -37.724,-37.724 0,-20.834 16.89,-37.724 37.724,-37.724 20.834,0 37.724,16.89 37.724,37.724 0,20.834 -16.89,37.724 -37.724,37.724 z"
       id="path5"
       inkscape:connector-curvature="0"
       style="fill:#8e9e82;fill-opacity:1" /><circle
       cx="100.147"
       cy="139.16499"
       r="9.191"
       id="circle7"
       style="fill:#8e9e82;fill-opacity:1" /><path
       d="m 164.746,50.584 9.906,-4.418 -1.544,-8.759 -11.056,-0.78 c -1.162,-2.69 -2.671,-5.192 -4.467,-7.458 l 4.796,-9.849 -6.813,-5.717 -9.017,6.542 c -2.553,-1.296 -5.292,-2.598 -8.171,-3.202 L 135.724,6 126.83,6 124.144,17.066 c -2.898,0.658 -5.652,1.85 -8.207,3.21 l -8.782,-6.292 -6.813,5.757 4.785,9.847 c -1.804,2.356 -3.297,4.971 -4.424,7.764 l -10.663,0.758 -1.544,8.762 9.833,4.386 c 0.136,3.116 0.703,6.118 1.639,8.954 l -7.578,7.328 4.447,7.703 10.252,-2.933 c 2.082,2.258 4.47,4.228 7.103,5.841 l -1.089,10.42 8.358,3.042 5.973,-8.844 c 1.343,0.165 2.707,0.26 4.095,0.26 1.723,0 3.416,-0.131 5.068,-0.384 l 5.891,8.722 8.358,-3.042 -1.12,-10.725 c 2.529,-1.658 4.816,-3.651 6.802,-5.918 l 10.269,2.937 4.447,-7.703 -7.868,-7.607 c 0.827,-2.773 1.299,-5.699 1.37,-8.725 z m -33.217,26.617 c -15.138,0 -27.41,-12.272 -27.41,-27.41 0,-15.138 12.272,-27.41 27.41,-27.41 15.138,0 27.41,12.272 27.41,27.41 0,15.138 -12.272,27.41 -27.41,27.41 z"
       id="path9"
       inkscape:connector-curvature="0"
       style="fill:#8e9e82;fill-opacity:1" /><circle
       cx="131.27699"
       cy="49.630001"
       r="21.049999"
       id="circle11"
       style="fill:#8e9e82;fill-opacity:1" /><path
       d="m 50.824,60.93 0.973,5.956 6.296,1.17 3.039,-5.196 c 1.914,-0.035 3.791,-0.29 5.606,-0.733 l 4.412,4.37 5.781,-2.754 -0.615,-6.187 c 1.461,-1.114 2.8,-2.389 3.999,-3.796 l 6.219,0.954 3.058,-5.626 -4.187,-4.704 c 0.255,-0.862 0.47,-1.744 0.637,-2.647 0.186,-1.003 0.305,-2.002 0.373,-2.995 l 0.037,0.285 5.601,-2.888 -0.833,-6.349 -6.157,-1.345 0.032,0.242 c -0.668,-1.957 -1.566,-3.819 -2.67,-5.55 l 0.341,0.36 2.834,-5.629 -4.406,-4.647 -5.772,2.531 0.209,0.22 c -1.658,-1.183 -3.469,-2.181 -5.412,-2.955 l 0.436,0.081 -1.016,-6.22 -6.296,-1.17 -3.182,5.44 0.145,0.027 c -1.974,0.023 -3.909,0.276 -5.779,0.732 l 0.218,-0.104 -4.477,-4.435 -5.781,2.754 0.62,6.238 c -1.462,1.098 -2.806,2.354 -4.012,3.744 l -6.211,-0.953 -3.058,5.626 4.116,4.623 c -0.289,0.941 -0.533,1.905 -0.717,2.896 -0.161,0.866 -0.276,1.729 -0.348,2.588 l -5.512,2.842 0.833,6.349 5.987,1.308 c 0.615,1.793 1.421,3.508 2.403,5.114 l -2.77,5.501 4.406,4.647 5.597,-2.454 c 1.542,1.083 3.214,2.008 5.003,2.739 z M 44.267,33.976 C 45.946,24.937 54.635,18.971 63.673,20.651 72.712,22.33 78.677,31.019 76.998,40.057 75.319,49.096 66.63,55.061 57.592,53.382 48.554,51.704 42.588,43.015 44.267,33.976 Z"
       id="path13"
       inkscape:connector-curvature="0"
       style="fill:#8e9e82;fill-opacity:1" /><path
       d="m 59.602,42.399 c 2.975,0.553 5.836,-1.411 6.388,-4.387 0.553,-2.975 -1.411,-5.836 -4.387,-6.388 -2.975,-0.553 -5.836,1.411 -6.388,4.387 -0.552,2.975 1.412,5.835 4.387,6.388 z m -2.469,-6.032 c 0.356,-1.916 2.198,-3.181 4.115,-2.825 1.916,0.356 3.181,2.198 2.825,4.115 -0.356,1.916 -2.198,3.181 -4.115,2.825 -1.916,-0.356 -3.181,-2.199 -2.825,-4.115 z"
       id="path15"
       inkscape:connector-curvature="0"
       style="fill:#8e9e82;fill-opacity:1" /></g></svg>