<?xml version="1.0" encoding="utf-8"?>
<!-- Generator: Adobe Illustrator 17.0.0, SVG Export Plug-In . SVG Version: 6.00 Build 0)  -->
<!DOCTYPE svg PUBLIC "-//W3C//DTD SVG 1.1//EN" "http://www.w3.org/Graphics/SVG/1.1/DTD/svg11.dtd">
<svg version="1.1"
	 id="Layer_1" xmlns:dc="http://purl.org/dc/elements/1.1/" xmlns:cc="http://creativecommons.org/ns#" xmlns:rdf="http://www.w3.org/1999/02/22-rdf-syntax-ns#" xmlns:svg="http://www.w3.org/2000/svg" xmlns:sodipodi="http://sodipodi.sourceforge.net/DTD/sodipodi-0.dtd" xmlns:inkscape="http://www.inkscape.org/namespaces/inkscape" sodipodi:docname="automation.svg" inkscape:version="0.91 r"
	 xmlns="http://www.w3.org/2000/svg" xmlns:xlink="http://www.w3.org/1999/xlink" x="0px" y="0px" width="512px" height="512px"
	 viewBox="0 0 512 512" enable-background="new 0 0 512 512" xml:space="preserve">
<sodipodi:namedview  inkscape:cy="256" inkscape:cx="256" inkscape:zoom="1" showgrid="false" guidetolerance="10" gridtolerance="10" objecttolerance="10" borderopacity="1" pagecolor="#ffffff" bordercolor="#666666" id="namedview17" inkscape:current-layer="Layer_1" inkscape:window-maximized="1" inkscape:window-y="24" inkscape:window-x="65" inkscape:window-height="1056" inkscape:window-width="1855" inkscape:pageshadow="2" inkscape:pageopacity="0">
	</sodipodi:namedview>
<circle id="path4149" fill="none" stroke="#FFFFFF" stroke-width="4" stroke-miterlimit="10" cx="256" cy="256" r="252"/>
<g id="g3" transform="matrix(1.5527363,0,0,1.5527363,101.48886,101.76023)">
	<path id="path5" inkscape:connector-curvature="0" fill="#FFFFFF" d="M157.503,138.104l-3.089-17.518l-10.792-0.761
		c-1.341-3.078-3-5.984-4.931-8.684l4.693-9.638l-13.627-11.434l-8.478,6.152c-3.069-1.545-6.322-3.044-9.725-3.902L109.041,82
		H91.253l-2.476,10.172c-3.505,0.833-6.861,2.182-10.019,3.74l-8.215-5.893l-13.627,11.468l4.444,9.143
		c-2.1,2.859-3.887,5.967-5.316,9.261l-10.14,0.72l-3.089,17.52l9.442,4.212c0.255,3.541,0.891,6.976,1.876,10.262l-7.48,7.233
		l8.894,15.405l10.255-2.933c2.349,2.392,4.948,4.535,7.755,6.392l-1.118,10.702l16.716,6.084l6.152-9.108
		c1.496,0.141,3.011,0.221,4.544,0.221c1.744,0,3.465-0.1,5.16-0.282l6.186,9.159l16.716-6.084l-1.159-11.097
		c2.638-1.803,5.08-3.867,7.301-6.15l10.736,3.071l8.894-15.405l-7.975-7.711c0.88-3.053,1.461-6.231,1.714-9.502L157.503,138.104
		L157.503,138.104z M99.851,176.593c-20.835,0-37.724-16.89-37.724-37.724s16.89-37.724,37.724-37.724s37.724,16.89,37.724,37.724
		S120.685,176.593,99.851,176.593L99.851,176.593z"/>
	<circle id="circle7" fill="#FFFFFF" cx="100.147" cy="139.165" r="9.191"/>
	<path id="path9" inkscape:connector-curvature="0" fill="#FFFFFF" d="M164.746,50.584l9.906-4.418l-1.544-8.759l-11.056-0.78
		c-1.162-2.69-2.671-5.192-4.467-7.458l4.796-9.849l-6.813-5.717l-9.017,6.542c-2.553-1.296-5.292-2.598-8.171-3.202L135.724,6
		h-8.894l-2.686,11.066c-2.898,0.658-5.652,1.85-8.207,3.21l-8.782-6.292l-6.813,5.757l4.785,9.847
		c-1.804,2.356-3.297,4.971-4.424,7.764L90.04,38.11l-1.544,8.762l9.833,4.386c0.136,3.116,0.703,6.118,1.639,8.954L92.39,67.54
		l4.447,7.703l10.252-2.933c2.082,2.258,4.47,4.228,7.103,5.841l-1.089,10.42l8.358,3.042l5.973-8.844
		c1.343,0.165,2.707,0.26,4.095,0.26c1.723,0,3.416-0.131,5.068-0.384l5.891,8.722l8.358-3.042l-1.12-10.725
		c2.529-1.658,4.816-3.651,6.802-5.918l10.269,2.937l4.447-7.703l-7.868-7.607C164.203,56.536,164.675,53.61,164.746,50.584
		L164.746,50.584z M131.529,77.201c-15.138,0-27.41-12.272-27.41-27.41s12.272-27.41,27.41-27.41s27.41,12.272,27.41,27.41
		S146.667,77.201,131.529,77.201z"/>
	<circle id="circle11" fill="#FFFFFF" cx="131.277" cy="49.63" r="21.05"/>
	<path id="path13" inkscape:connector-curvature="0" fill="#FFFFFF" d="M50.824,60.93l0.973,5.956l6.296,1.17l3.039-5.196
		c1.914-0.035,3.791-0.29,5.606-0.733l4.412,4.37l5.781-2.754l-0.615-6.187c1.461-1.114,2.8-2.389,3.999-3.796l6.219,0.954
		l3.058-5.626l-4.187-4.704c0.255-0.862,0.47-1.744,0.637-2.647c0.186-1.003,0.305-2.002,0.373-2.995l0.037,0.285l5.601-2.888
		L91.22,29.79l-6.157-1.345l0.032,0.242c-0.668-1.957-1.566-3.819-2.67-5.55l0.341,0.36l2.834-5.629l-4.406-4.647l-5.772,2.531
		l0.209,0.22c-1.658-1.183-3.469-2.181-5.412-2.955l0.436,0.081l-1.016-6.22l-6.296-1.17l-3.182,5.44l0.145,0.027
		c-1.974,0.023-3.909,0.276-5.779,0.732l0.218-0.104l-4.477-4.435l-5.781,2.754l0.62,6.238c-1.462,1.098-2.806,2.354-4.012,3.744
		l-6.211-0.953l-3.058,5.626l4.116,4.623c-0.289,0.941-0.533,1.905-0.717,2.896c-0.161,0.866-0.276,1.729-0.348,2.588l-5.512,2.842
		l0.833,6.349l5.987,1.308c0.615,1.793,1.421,3.508,2.403,5.114l-2.77,5.501l4.406,4.647l5.597-2.454
		C47.363,59.274,49.035,60.199,50.824,60.93L50.824,60.93z M44.267,33.976c1.679-9.039,10.368-15.005,19.406-13.325
		c9.039,1.679,15.004,10.368,13.325,19.406c-1.679,9.039-10.368,15.004-19.406,13.325C48.554,51.704,42.588,43.015,44.267,33.976z"
		/>
	<path id="path15" inkscape:connector-curvature="0" fill="#FFFFFF" d="M59.602,42.399c2.975,0.553,5.836-1.411,6.388-4.387
		c0.553-2.975-1.411-5.836-4.387-6.388c-2.975-0.553-5.836,1.411-6.388,4.387C54.663,38.986,56.627,41.846,59.602,42.399z
		 M57.133,36.367c0.356-1.916,2.198-3.181,4.115-2.825c1.916,0.356,3.181,2.198,2.825,4.115c-0.356,1.916-2.198,3.181-4.115,2.825
		C58.042,40.126,56.777,38.283,57.133,36.367z"/>
</g>
</svg>
