<?xml version="1.0" encoding="utf-8"?>
<!-- Generator: Adobe Illustrator 17.0.0, SVG Export Plug-In . SVG Version: 6.00 Build 0)  -->
<!DOCTYPE svg PUBLIC "-//W3C//DTD SVG 1.1//EN" "http://www.w3.org/Graphics/SVG/1.1/DTD/svg11.dtd">
<svg version="1.1" xmlns="http://www.w3.org/2000/svg" xmlns:xlink="http://www.w3.org/1999/xlink" x="0px" y="0px" width="1024px"
	 height="768px" viewBox="0 0 1024 768" enable-background="new 0 0 1024 768" xml:space="preserve">
<g id="Capa_2">
</g>
<g id="Capa_1">
	<g id="XMLID_141_">
		<path id="XMLID_151_" fill="#FFFFFF" d="M495.911,414.361c-7.918-0.206-15.65-1.116-23.152-2.643
			c12.1,3.852,24.984,5.948,38.36,5.948c40.718,0,76.912-19.283,100.015-49.193l-7.249-5.068
			C578.875,395.366,539.597,415.497,495.911,414.361z"/>
		<path id="XMLID_150_" fill="#FFFFFF" d="M626.296,343.226c-4.076,9.032-9.174,17.496-15.162,25.247l18.361,12.837L626.296,343.226
			z"/>
		<path id="XMLID_149_" fill="#FFFFFF" d="M398.358,348.279c-11.534-9.238-21.013-20.91-27.675-34.215
			c12.29,49.006,51.892,87.441,102.076,97.654C440.284,401.379,413.531,378.263,398.358,348.279z"/>
		<path id="XMLID_142_" fill="#FFFFFF" d="M567.028,178.041c2.33,2.896,4.616,5.711,7.004,8.418c2.501,2.834,5.08,5.243-1.906,6.848
			c3.768,1.398,6.622,1.928,9.475,2.987c-0.109,0.411-0.217,0.705-0.326,0.705c-1.478,0-2.956,0-4.434,0
			c-0.083,2-0.166,1.322-0.249,1.718c1.516,0.44,3.031,1.144,5.403,1.832c-1.619,1.838-2.892,3.718-4.462,5.138
			c-4.416,3.993-9.368,7.552-13.266,11.983c-1.919,2.181-2.02,6.021-2.863,9.114c-0.523,1.923-0.894,3.904-1.337,5.867
			c-6.544-1.321-12.588-2.1-15.933-8.235c-2.888-5.298-5.617-10.478,2.245-15.717c-0.788-0.111-1.575-0.22-2.363-0.331
			c-1.356,0.549-2.712,1.099-4.068,1.648c-0.311-0.498-0.622-0.995-0.933-1.493c1.403-0.904,2.805-1.808,3.372-2.173
			c-1.248-2.393-2.784-4.7-3.701-7.231c-2.015-5.557-5.35-8.895-11.668-7.428c-0.182-2.413-0.312-4.148-0.471-6.256
			c2.003-0.791,4.386-1.733,7.735-3.056c-4.7-2.507-4.303-1.959-7.534,0.378c-3.691,2.67-8.181,3.997-11.649,5.71
			c-1.998,2.846-3.773,5.532-6.158,8.532c-2.871,0-7.502,0-13.135,0c2.808-3,4.943-5.327,7.092-7.748
			c-0.707-0.765-1.501-1.504-2.136-2.192c3.014-0.786,5.911-1.483,9.324-2.373c-5.977-0.895-11.169-1.642-16.361-2.42
			c0.057-0.569,0.114-1.123,0.171-1.693c13.271-1.258,26.142-6.387,40.045-1.997c3.44,1.086,8.655-2.157,12.585-4.28
			c1.616-0.873,3.078-2.052,4.583-2.801c-12.572-4.194-26.007-6.498-39.988-6.498c-40.622,0-76.74,19.195-99.851,48.985
			c3.749,0.793,7.508,1.756,11.22,2.111c3.142,0.301,6.324,0.6,9.463,0.434c8.211-0.435,16.406-1.484,24.451,1.357
			c3.422,1.208,6.92,2.574,10.477,2.931c4.524,0.453,9.166,0.176,13.705-0.293c1.117-0.115,2.031-2.194,3.732-4.179
			c0.41,1.21,0.9,2.656,1.605,4.738c1.145-0.922,2.414-1.945,4.09-3.294c-2.495-2.192-7.014-3.751-2.294-7.358
			c3.541,3.769,6.918,7.363,10.299,10.962c4.478-3.804,4.474-4.243-0.173-7.328c-4.268-2.833-3.838-5.946,1.315-8.631
			c0.075,0.666,0.149,1.321,0.223,1.982c1.736-0.785,3.466-1.657,5.244-1.77c1.124-0.071,2.388,1.714,3.964,3.221
			C520.657,205.731,524.234,219,533.464,224c-2.408,0-4.817,0-7.998,0c1.432,2,2.796,3.984,4.414,6.074
			c-4.158,2.482-7.517,2.975-11.173-0.788c-1.356-1.395-4.318-1.136-5.112-1.33c1.541-2.276,4.28-4.647,4.739-7.438
			c0.413-2.511-8.726-5.678-13.091-4.927c0.24,2.277,0.481,4.569,0.541,5.145c-5.724,4.774-10.994,8.533-15.458,13.078
			c-4.5,4.581-3.141,8.111,3.139,10.378c1.54,0.556,2.933,1.525,4.478,2.057c3.813,1.312,7.694,2.377,8.483,7.3
			c0.108,0.675,1.525,1.14,2.439,1.774c3.533-7.242,4.264-14.434,2.246-22.198c5.679,0.067,10.294,0.313,12.307,6.431
			c0.287,0.871,4.074,0.59,8.003,1.048c2.476,2.954,6.456,7.703,11.613,13.856c-5.984,1.296-11.063,2.395-16.085,3.482
			c1.931,2.886,3.84,5.74,6.008,8.98c-1.388,0-3.164-0.158-4.897,0.047c-1.531,0.181-3.598,0.279-4.418,1.259
			c-3.503,4.188-6.645,8.68-9.883,13.087c-0.475,0.647-0.572,1.781-1.163,2.101c-5.803,3.145-7.843,7.551-3.62,14.251
			c-0.619-0.003-1.238-0.006-1.857-0.01c-0.729-0.936-1.345-1.997-2.211-2.782c-1.641-1.488-3.386-3.928-5.158-3.992
			c-4.168-0.149-8.778,0.016-12.424,1.727c-2.242,1.053-3.998,5.127-4.183,7.961c-0.155,2.369,1.741,5.909,3.774,7.023
			c1.382,0.758,4.548-1.831,6.96-2.815c0.911-0.372,1.946-0.439,3.523-0.771c-0.362,2.586-0.664,4.74-1.026,7.323
			c2.114,0.464,4.208,0.924,5.174,1.136c1.538,4.084,2.777,7.373,3.92,10.408c-0.661-0.36-2.893-0.935-4.138-2.367
			c-4.856-5.588-11.085-7.702-18.131-9.147c-4.783-0.981-9.275-2.814-11.712-8.817c-2.133-5.256-7.407-9.238-11.615-14.158
			c-0.295,1.279-0.518,2.245-0.645,2.796c-2.729-2.813-5.873-5.395-8.15-8.594c-2.109-2.962-4.938-6.768-4.591-9.884
			c1.425-12.788-6.469-21.058-13.48-29.547c-2.284-2.765-7.028-4.042-10.885-4.828c-4.895-0.998-10.175-1.626-15.007-0.785
			c-2.517,0.438-4.427,4.37-6.633,6.747c-1.165-1.406-1.909-2.804-3.066-3.601c-0.515-0.355-1.042-0.693-1.567-1.033
			c-7.086,15.78-11.06,33.26-11.06,51.679c0,20.494,4.911,39.83,13.572,56.946c16.835,13.484,38.049,21.779,61.276,22.382
			c16.805,0.437,32.757-3.215,46.926-10.033c0,0,26.463-16.271,33.941-26.291c2.687-3.18,5.188-6.523,7.478-10.02l-24.345-17.021
			l96.336-39.363l6.325,75.292c7.146-15.836,11.157-33.391,11.157-51.893C637.453,241.64,608.749,198.669,567.028,178.041z
			 M457.237,218c-0.068,0-0.136-1.536-0.204-2.136c1.218-0.511,2.437-1.189,3.08-1.459c-1.819-1.61-3.927-3.56-6.035-5.426
			c-3.052,0.631-5.789,5.722-9.137,0.608c0.731-9.057,6.44-5.897,11.829-4.502c-0.791,1.17-1.499,2.205-2.206,3.251
			c5.294-0.464,10.922-1.872,15.759-0.6c3.043,0.8,4.899,6.263,7.676,10.263C470.004,218,463.621,218,457.237,218z M486.358,186.922
			c0.883-1.196,1.951-2.642,3.4-4.604c3.265,2.123,6.266,4.075,9.586,6.234C493.039,194.214,489.489,191.769,486.358,186.922z
			 M491.456,198.785c5.538,0.632,11.144,1.273,18.154,2.073C500.513,204.722,492.098,202.953,491.456,198.785z M535.834,331.958
			c-5.676,5.711-20.218,19.824-31.333,26.147c-4.126-6.136-4.641-15.017-0.761-21.139c0.621-0.98,0.941-2.262,1.051-3.437
			c0.759-8.119,4.609-11.134,12.171-8.691C523.353,326.902,529.595,329.439,535.834,331.958z M576.541,214.506
			c4.535,0.249,8.537,0.469,12.54,0.689C582.184,222.094,579.423,221.593,576.541,214.506z"/>
	</g>
	<g id="XMLID_140_">
		<path fill="#FFFFFF" d="M432.262,604.243c-3.291,1.181-9.79,3.123-17.471,3.123c-8.607,0-15.697-2.194-21.268-7.511
			c-4.895-4.726-7.934-12.322-7.934-21.184c0.085-16.964,11.732-29.37,30.805-29.37c6.584,0,11.732,1.435,14.18,2.617l-1.773,5.992
			c-3.037-1.35-6.836-2.447-12.574-2.447c-13.842,0-22.871,8.608-22.871,22.872c0,14.432,8.692,22.956,21.942,22.956
			c4.811,0,8.103-0.675,9.79-1.519v-16.964h-11.563v-5.908h18.736V604.243z"/>
		<path fill="#FFFFFF" d="M443.234,546.853h7.426v59.921h-7.426V546.853z"/>
		<path fill="#FFFFFF" d="M500.116,586.013c0,15.107-10.465,21.69-20.339,21.69c-11.057,0-19.58-8.102-19.58-21.015
			c0-13.672,8.945-21.69,20.255-21.69C492.184,564.998,500.116,573.522,500.116,586.013z M467.708,586.435
			c0,8.946,5.148,15.698,12.406,15.698c7.089,0,12.406-6.667,12.406-15.867c0-6.92-3.46-15.698-12.237-15.698
			S467.708,578.67,467.708,586.435z"/>
		<path fill="#FFFFFF" d="M509.146,606.774c0.17-2.785,0.338-6.92,0.338-10.549v-49.372h7.343v25.656h0.169
			c2.616-4.557,7.342-7.511,13.926-7.511c10.127,0,17.301,8.44,17.217,20.846c0,14.601-9.199,21.858-18.314,21.858
			c-5.908,0-10.634-2.279-13.672-7.68h-0.254l-0.338,6.752H509.146z M516.827,590.401c0,0.929,0.169,1.857,0.337,2.701
			c1.436,5.148,5.74,8.693,11.141,8.693c7.765,0,12.406-6.33,12.406-15.698c0-8.187-4.219-15.191-12.152-15.191
			c-5.064,0-9.791,3.46-11.31,9.115c-0.169,0.844-0.422,1.856-0.422,3.038V590.401z"/>
		<path fill="#FFFFFF" d="M580.123,606.774l-0.59-5.148h-0.254c-2.279,3.207-6.667,6.076-12.49,6.076
			c-8.271,0-12.49-5.823-12.49-11.731c0-9.875,8.776-15.276,24.559-15.191v-0.844c0-3.376-0.928-9.453-9.283-9.453
			c-3.799,0-7.765,1.182-10.635,3.039l-1.688-4.895c3.376-2.194,8.271-3.629,13.419-3.629c12.491,0,15.528,8.524,15.528,16.71
			v15.276c0,3.545,0.17,7.005,0.676,9.79H580.123z M579.026,585.929c-8.103-0.169-17.302,1.266-17.302,9.199
			c0,4.811,3.207,7.089,7.006,7.089c5.316,0,8.692-3.375,9.874-6.836c0.253-0.76,0.422-1.604,0.422-2.363V585.929z"/>
		<path fill="#FFFFFF" d="M598.185,546.853h7.427v59.921h-7.427V546.853z"/>
	</g>
	<g id="XMLID_139_">
		<path fill="#FFFFFF" d="M411.029,534.913v-40.816l-30.398-55.374h14.129l13.559,26.545c3.711,7.278,6.564,13.13,9.562,19.837
			h0.286c2.711-6.28,5.993-12.559,9.704-19.837l13.843-26.545h14.129l-32.254,55.231v40.959H411.029z"/>
		<path fill="#FFFFFF" d="M488.66,534.913v-40.816l-30.398-55.374h14.129l13.559,26.545c3.711,7.278,6.564,13.13,9.562,19.837h0.286
			c2.711-6.28,5.993-12.559,9.704-19.837l13.843-26.545h14.129l-32.254,55.231v40.959H488.66z"/>
		<path fill="#FFFFFF" d="M612.533,530.631c-5.565,1.998-16.555,5.28-29.542,5.28c-14.557,0-26.545-3.71-35.964-12.702
			c-8.277-7.992-13.416-20.836-13.416-35.822c0.143-28.686,19.838-49.665,52.092-49.665c11.132,0,19.838,2.426,23.977,4.424
			l-2.998,10.133c-5.137-2.283-11.56-4.139-21.264-4.139c-23.406,0-38.676,14.557-38.676,38.676
			c0,24.404,14.699,38.819,37.105,38.819c8.135,0,13.701-1.142,16.555-2.569v-28.686h-19.552v-9.99h31.683V530.631z"/>
	</g>
	<g id="XMLID_138_">
		<path fill="#FFFFFF" d="M393.344,617.424c1.632-0.246,3.57-0.431,5.694-0.431c3.847,0,6.587,0.893,8.402,2.585
			c1.847,1.693,2.924,4.094,2.924,7.448c0,3.385-1.046,6.155-2.985,8.063c-1.939,1.939-5.141,2.985-9.172,2.985
			c-1.908,0-3.508-0.092-4.863-0.246V617.424z M396.021,635.767c0.678,0.123,1.662,0.154,2.709,0.154
			c5.725,0,8.833-3.201,8.833-8.802c0.03-4.894-2.739-8.002-8.402-8.002c-1.385,0-2.431,0.123-3.14,0.277V635.767z"/>
		<path fill="#FFFFFF" d="M415.376,630.935c0.062,3.663,2.4,5.17,5.108,5.17c1.939,0,3.109-0.338,4.125-0.77l0.461,1.939
			c-0.953,0.431-2.585,0.923-4.955,0.923c-4.586,0-7.324-3.016-7.324-7.509c0-4.494,2.646-8.033,6.986-8.033
			c4.862,0,6.155,4.278,6.155,7.017c0,0.554-0.062,0.985-0.093,1.262H415.376z M423.316,628.996
			c0.031-1.724-0.708-4.401-3.755-4.401c-2.739,0-3.939,2.524-4.155,4.401H423.316z"/>
		<path fill="#FFFFFF" d="M429.283,616.039h2.709v21.852h-2.709V616.039z"/>
		<path fill="#FFFFFF" d="M439.562,618.809c0.03,0.923-0.646,1.662-1.724,1.662c-0.953,0-1.631-0.738-1.631-1.662
			c0-0.954,0.708-1.693,1.693-1.693C438.916,617.116,439.562,617.855,439.562,618.809z M436.545,637.891v-14.896h2.709v14.896
			H436.545z"/>
		<path fill="#FFFFFF" d="M444.792,622.995l2.924,8.371c0.493,1.354,0.893,2.585,1.2,3.816h0.093
			c0.339-1.231,0.769-2.462,1.262-3.816l2.894-8.371h2.831l-5.848,14.896h-2.585l-5.664-14.896H444.792z"/>
		<path fill="#FFFFFF" d="M459.746,630.935c0.063,3.663,2.4,5.17,5.109,5.17c1.939,0,3.108-0.338,4.124-0.77l0.462,1.939
			c-0.954,0.431-2.586,0.923-4.955,0.923c-4.586,0-7.325-3.016-7.325-7.509c0-4.494,2.647-8.033,6.986-8.033
			c4.862,0,6.155,4.278,6.155,7.017c0,0.554-0.062,0.985-0.092,1.262H459.746z M467.688,628.996c0.03-1.724-0.709-4.401-3.756-4.401
			c-2.738,0-3.939,2.524-4.154,4.401H467.688z"/>
		<path fill="#FFFFFF" d="M473.654,627.642c0-1.754-0.031-3.263-0.123-4.647h2.37l0.093,2.924h0.123
			c0.676-2,2.308-3.262,4.123-3.262c0.309,0,0.523,0.031,0.77,0.092v2.554c-0.277-0.062-0.554-0.092-0.923-0.092
			c-1.908,0-3.263,1.447-3.632,3.478c-0.062,0.369-0.123,0.8-0.123,1.262v7.94h-2.678V627.642z"/>
		<path fill="#FFFFFF" d="M485.471,622.995l3.262,8.802c0.339,0.985,0.708,2.154,0.955,3.047h0.061
			c0.277-0.893,0.585-2.031,0.955-3.108l2.954-8.741h2.862l-4.063,10.618c-1.939,5.109-3.263,7.725-5.109,9.325
			c-1.323,1.169-2.646,1.631-3.324,1.754l-0.677-2.277c0.677-0.216,1.569-0.646,2.37-1.324c0.738-0.584,1.662-1.631,2.277-3.016
			c0.123-0.277,0.215-0.492,0.215-0.646c0-0.154-0.061-0.37-0.184-0.708l-5.51-13.727H485.471z"/>
		<path fill="#FFFFFF" d="M505.225,634.628c1.2,0.738,2.955,1.354,4.801,1.354c2.74,0,4.34-1.446,4.34-3.54
			c0-1.939-1.107-3.047-3.908-4.124c-3.386-1.2-5.479-2.955-5.479-5.878c0-3.231,2.678-5.632,6.709-5.632
			c2.124,0,3.662,0.492,4.586,1.016l-0.738,2.185c-0.678-0.37-2.063-0.985-3.939-0.985c-2.832,0-3.908,1.693-3.908,3.108
			c0,1.939,1.262,2.893,4.123,4.001c3.509,1.354,5.294,3.047,5.294,6.094c0,3.201-2.37,5.971-7.263,5.971
			c-2.001,0-4.187-0.584-5.295-1.323L505.225,634.628z"/>
		<path fill="#FFFFFF" d="M522.363,630.935c0.063,3.663,2.4,5.17,5.109,5.17c1.939,0,3.108-0.338,4.124-0.77l0.462,1.939
			c-0.954,0.431-2.586,0.923-4.955,0.923c-4.586,0-7.325-3.016-7.325-7.509c0-4.494,2.647-8.033,6.986-8.033
			c4.862,0,6.155,4.278,6.155,7.017c0,0.554-0.062,0.985-0.092,1.262H522.363z M530.305,628.996c0.03-1.724-0.709-4.401-3.756-4.401
			c-2.738,0-3.939,2.524-4.154,4.401H530.305z"/>
		<path fill="#FFFFFF" d="M536.271,627.642c0-1.754-0.031-3.263-0.123-4.647h2.37l0.093,2.924h0.123
			c0.676-2,2.308-3.262,4.123-3.262c0.309,0,0.523,0.031,0.77,0.092v2.554c-0.277-0.062-0.554-0.092-0.923-0.092
			c-1.908,0-3.263,1.447-3.632,3.478c-0.062,0.369-0.123,0.8-0.123,1.262v7.94h-2.678V627.642z"/>
		<path fill="#FFFFFF" d="M548.148,622.995l2.924,8.371c0.493,1.354,0.893,2.585,1.201,3.816h0.092
			c0.339-1.231,0.77-2.462,1.262-3.816l2.894-8.371h2.831l-5.848,14.896h-2.585l-5.663-14.896H548.148z"/>
		<path fill="#FFFFFF" d="M564.919,618.809c0.03,0.923-0.646,1.662-1.724,1.662c-0.953,0-1.631-0.738-1.631-1.662
			c0-0.954,0.708-1.693,1.693-1.693C564.273,617.116,564.919,617.855,564.919,618.809z M561.902,637.891v-14.896h2.709v14.896
			H561.902z"/>
		<path fill="#FFFFFF" d="M579.721,637.336c-0.707,0.37-2.277,0.862-4.277,0.862c-4.494,0-7.418-3.047-7.418-7.602
			c0-4.586,3.14-7.91,8.002-7.91c1.602,0,3.017,0.4,3.756,0.769l-0.615,2.093c-0.646-0.369-1.662-0.708-3.141-0.708
			c-3.416,0-5.262,2.523-5.262,5.632c0,3.447,2.215,5.571,5.17,5.571c1.539,0,2.555-0.4,3.324-0.739L579.721,637.336z"/>
		<path fill="#FFFFFF" d="M584.212,630.935c0.062,3.663,2.4,5.17,5.108,5.17c1.939,0,3.109-0.338,4.125-0.77l0.461,1.939
			c-0.953,0.431-2.585,0.923-4.955,0.923c-4.586,0-7.324-3.016-7.324-7.509c0-4.494,2.646-8.033,6.986-8.033
			c4.862,0,6.155,4.278,6.155,7.017c0,0.554-0.062,0.985-0.093,1.262H584.212z M592.152,628.996
			c0.031-1.724-0.708-4.401-3.755-4.401c-2.739,0-3.939,2.524-4.155,4.401H592.152z"/>
		<path fill="#FFFFFF" d="M597.75,635.121c0.801,0.523,2.217,1.077,3.57,1.077c1.971,0,2.893-0.985,2.893-2.216
			c0-1.292-0.769-2-2.77-2.739c-2.678-0.954-3.939-2.431-3.939-4.216c0-2.4,1.939-4.37,5.141-4.37c1.508,0,2.831,0.431,3.662,0.923
			l-0.678,1.97c-0.584-0.369-1.662-0.861-3.047-0.861c-1.6,0-2.492,0.923-2.492,2.031c0,1.231,0.893,1.785,2.831,2.523
			c2.585,0.985,3.909,2.278,3.909,4.494c0,2.616-2.031,4.462-5.571,4.462c-1.631,0-3.14-0.4-4.186-1.016L597.75,635.121z"/>
	</g>
</g>
</svg>
