<?xml version="1.0" encoding="utf-8"?>
<!-- Generator: Adobe Illustrator 17.0.0, SVG Export Plug-In . SVG Version: 6.00 Build 0)  -->
<!DOCTYPE svg PUBLIC "-//W3C//DTD SVG 1.1//EN" "http://www.w3.org/Graphics/SVG/1.1/DTD/svg11.dtd">
<svg version="1.1" xmlns="http://www.w3.org/2000/svg" xmlns:xlink="http://www.w3.org/1999/xlink" x="0px" y="0px" width="1024px"
	 height="768px" viewBox="0 0 1024 768" enable-background="new 0 0 1024 768" xml:space="preserve">
<g id="Capa_2">
	<rect id="XMLID_39_" x="0" y="779.59" fill="#1D263A" width="8.063" height="1.5"/>
	<rect id="XMLID_122_" x="1043" y="778.59" fill="#1D263A" width="8.063" height="1.5"/>
</g>
<g id="Capa_1">
	<g id="XMLID_168_">
		<path id="XMLID_4_" fill="#66A8DE" d="M-1767.089,430.361c-7.918-0.206-15.65-1.116-23.152-2.643
			c12.1,3.852,24.984,5.948,38.36,5.948c40.718,0,76.911-19.283,100.015-49.193l-7.249-5.068
			C-1684.125,411.366-1723.403,431.497-1767.089,430.361z"/>
		<path id="XMLID_6_" fill="#E7AD47" d="M-1636.704,359.226c-4.076,9.032-9.174,17.496-15.162,25.247l18.361,12.837
			L-1636.704,359.226z"/>
		<path id="XMLID_7_" fill="#E7AD47" d="M-1864.642,364.279c-11.534-9.238-21.013-20.91-27.675-34.215
			c12.29,49.006,51.892,87.441,102.076,97.654C-1822.716,417.379-1849.469,394.263-1864.642,364.279z"/>
		<path id="XMLID_9_" fill="#66A8DE" d="M-1695.972,194.041c2.33,2.896,4.616,5.711,7.004,8.418c2.501,2.834,5.08,5.243-1.906,6.848
			c3.768,1.398,6.622,1.928,9.475,2.987c-0.109,0.411-0.217,0.705-0.326,0.705c-1.478,0-2.956,0-4.434,0
			c-0.083,2-0.166,1.322-0.249,1.718c1.516,0.44,3.031,1.144,5.403,1.832c-1.619,1.838-2.892,3.718-4.462,5.138
			c-4.416,3.993-9.368,7.552-13.266,11.983c-1.919,2.181-2.02,6.021-2.863,9.114c-0.524,1.923-0.894,3.904-1.337,5.867
			c-6.544-1.321-12.588-2.1-15.933-8.235c-2.888-5.298-5.617-10.478,2.245-15.717c-0.788-0.111-1.575-0.22-2.363-0.331
			c-1.356,0.549-2.712,1.099-4.068,1.648c-0.311-0.498-0.622-0.995-0.933-1.493c1.402-0.904,2.805-1.808,3.372-2.173
			c-1.248-2.393-2.784-4.7-3.701-7.231c-2.015-5.557-5.35-8.895-11.668-7.428c-0.182-2.413-0.312-4.148-0.471-6.256
			c2.003-0.791,4.386-1.733,7.735-3.056c-4.7-2.507-4.303-1.959-7.534,0.378c-3.691,2.67-8.181,3.997-11.649,5.71
			c-1.998,2.846-3.773,5.532-6.158,8.532c-2.871,0-7.502,0-13.135,0c2.808-3,4.943-5.327,7.092-7.748
			c-0.706-0.765-1.5-1.504-2.136-2.192c3.014-0.786,5.911-1.483,9.324-2.373c-5.977-0.895-11.169-1.642-16.361-2.42
			c0.057-0.569,0.114-1.123,0.171-1.693c13.271-1.258,26.142-6.387,40.045-1.997c3.44,1.086,8.655-2.157,12.585-4.28
			c1.616-0.873,3.078-2.052,4.583-2.801c-12.572-4.194-26.007-6.498-39.988-6.498c-40.622,0-76.74,19.195-99.851,48.985
			c3.749,0.793,7.508,1.756,11.22,2.111c3.142,0.301,6.324,0.6,9.463,0.434c8.211-0.435,16.406-1.484,24.451,1.357
			c3.422,1.208,6.92,2.574,10.477,2.931c4.524,0.453,9.166,0.176,13.705-0.293c1.117-0.115,2.031-2.194,3.732-4.179
			c0.41,1.21,0.9,2.656,1.605,4.738c1.145-0.922,2.414-1.945,4.09-3.294c-2.495-2.192-7.014-3.751-2.294-7.358
			c3.542,3.769,6.918,7.363,10.299,10.962c4.479-3.804,4.474-4.243-0.173-7.328c-4.268-2.833-3.838-5.946,1.315-8.631
			c0.075,0.666,0.149,1.321,0.223,1.982c1.736-0.785,3.466-1.657,5.244-1.77c1.124-0.071,2.389,1.714,3.964,3.221
			c12.065-3.136,15.643,10.134,24.872,15.134c-2.408,0-4.817,0-7.998,0c1.432,2,2.796,3.984,4.414,6.074
			c-4.158,2.482-7.517,2.975-11.173-0.788c-1.356-1.395-4.318-1.136-5.112-1.33c1.541-2.276,4.28-4.647,4.739-7.438
			c0.413-2.511-8.726-5.678-13.091-4.927c0.24,2.277,0.481,4.569,0.541,5.145c-5.724,4.774-10.994,8.533-15.458,13.078
			c-4.5,4.581-3.141,8.111,3.139,10.378c1.54,0.556,2.933,1.525,4.478,2.057c3.813,1.312,7.694,2.377,8.483,7.3
			c0.108,0.675,1.525,1.14,2.439,1.774c3.533-7.242,4.264-14.434,2.246-22.198c5.679,0.067,10.293,0.313,12.307,6.431
			c0.287,0.871,4.074,0.59,8.003,1.048c2.476,2.954,6.456,7.703,11.613,13.856c-5.984,1.296-11.063,2.395-16.085,3.482
			c1.931,2.886,3.84,5.74,6.008,8.98c-1.388,0-3.164-0.158-4.897,0.047c-1.531,0.181-3.598,0.279-4.418,1.259
			c-3.503,4.188-6.645,8.68-9.883,13.087c-0.475,0.647-0.572,1.781-1.163,2.101c-5.803,3.145-7.842,7.551-3.62,14.251
			c-0.619-0.003-1.238-0.006-1.857-0.01c-0.729-0.936-1.345-1.997-2.211-2.782c-1.641-1.488-3.386-3.928-5.158-3.992
			c-4.168-0.149-8.778,0.016-12.424,1.727c-2.242,1.053-3.998,5.127-4.183,7.961c-0.155,2.369,1.741,5.909,3.774,7.023
			c1.382,0.758,4.548-1.831,6.96-2.815c0.911-0.372,1.946-0.439,3.524-0.771c-0.362,2.586-0.664,4.74-1.026,7.323
			c2.114,0.464,4.208,0.924,5.174,1.136c1.538,4.084,2.777,7.373,3.92,10.408c-0.661-0.36-2.893-0.935-4.138-2.367
			c-4.856-5.588-11.085-7.702-18.131-9.147c-4.783-0.981-9.275-2.814-11.712-8.817c-2.133-5.256-7.407-9.238-11.615-14.158
			c-0.295,1.279-0.517,2.245-0.644,2.796c-2.729-2.813-5.873-5.395-8.15-8.594c-2.109-2.962-4.938-6.768-4.591-9.884
			c1.425-12.788-6.469-21.058-13.48-29.547c-2.284-2.765-7.028-4.042-10.885-4.828c-4.895-0.998-10.175-1.626-15.006-0.785
			c-2.517,0.438-4.427,4.37-6.633,6.747c-1.166-1.406-1.909-2.804-3.067-3.601c-0.515-0.355-1.042-0.693-1.567-1.033
			c-7.086,15.78-11.06,33.26-11.06,51.679c0,20.494,4.911,39.83,13.572,56.946c16.835,13.484,38.049,21.779,61.276,22.382
			c16.805,0.437,32.757-3.215,46.926-10.033c0,0,26.463-16.271,33.941-26.291c2.687-3.18,5.188-6.523,7.478-10.02l-24.344-17.021
			l96.336-39.363l6.325,75.292c7.146-15.836,11.157-33.391,11.157-51.893C-1625.547,257.64-1654.251,214.669-1695.972,194.041z
			 M-1805.763,234c-0.068,0-0.136-1.536-0.204-2.136c1.218-0.511,2.437-1.189,3.08-1.459c-1.819-1.61-3.927-3.56-6.035-5.426
			c-3.052,0.631-5.789,5.722-9.137,0.608c0.731-9.057,6.44-5.897,11.829-4.502c-0.791,1.17-1.499,2.205-2.206,3.251
			c5.294-0.464,10.922-1.872,15.759-0.6c3.043,0.8,4.899,6.263,7.676,10.263C-1792.996,234-1799.379,234-1805.763,234z
			 M-1776.642,202.922c0.883-1.196,1.951-2.642,3.4-4.604c3.265,2.123,6.266,4.075,9.586,6.234
			C-1769.961,210.214-1773.511,207.769-1776.642,202.922z M-1771.544,214.785c5.538,0.632,11.144,1.273,18.154,2.073
			C-1762.487,220.722-1770.902,218.953-1771.544,214.785z M-1727.166,347.958c-5.676,5.711-20.218,19.824-31.333,26.147
			c-4.125-6.136-4.641-15.017-0.761-21.139c0.621-0.98,0.941-2.262,1.051-3.437c0.759-8.119,4.609-11.134,12.171-8.691
			C-1739.647,342.902-1733.405,345.439-1727.166,347.958z M-1686.459,230.506c4.535,0.249,8.537,0.469,12.54,0.689
			C-1680.816,238.094-1683.577,237.593-1686.459,230.506z"/>
	</g>
	<g id="XMLID_124_">
		<path fill="#FBB03B" d="M-1530.738,380.243c-3.292,1.181-9.79,3.123-17.47,3.123c-8.608,0-15.698-2.194-21.268-7.511
			c-4.895-4.726-7.934-12.322-7.934-21.184c0.084-16.964,11.731-29.37,30.805-29.37c6.583,0,11.731,1.435,14.179,2.617l-1.772,5.992
			c-3.038-1.35-6.836-2.447-12.575-2.447c-13.841,0-22.872,8.608-22.872,22.872c0,14.432,8.693,22.956,21.943,22.956
			c4.811,0,8.102-0.675,9.79-1.519v-16.964h-11.562v-5.908h18.736V380.243z"/>
		<path fill="#FBB03B" d="M-1519.766,322.853h7.427v59.921h-7.427V322.853z"/>
		<path fill="#FBB03B" d="M-1462.884,362.013c0,15.107-10.465,21.69-20.339,21.69c-11.056,0-19.58-8.102-19.58-21.015
			c0-13.672,8.946-21.69,20.255-21.69C-1470.817,340.998-1462.884,349.522-1462.884,362.013z M-1495.292,362.435
			c0,8.946,5.148,15.698,12.406,15.698c7.089,0,12.406-6.667,12.406-15.867c0-6.92-3.46-15.698-12.237-15.698
			S-1495.292,354.67-1495.292,362.435z"/>
		<path fill="#FBB03B" d="M-1453.853,382.774c0.169-2.785,0.338-6.92,0.338-10.549v-49.372h7.342v25.656h0.169
			c2.616-4.557,7.342-7.511,13.925-7.511c10.127,0,17.301,8.44,17.217,20.846c0,14.601-9.199,21.858-18.314,21.858
			c-5.908,0-10.634-2.279-13.672-7.68h-0.253l-0.338,6.752H-1453.853z M-1446.173,366.401c0,0.929,0.169,1.857,0.337,2.701
			c1.435,5.148,5.739,8.693,11.141,8.693c7.764,0,12.406-6.33,12.406-15.698c0-8.187-4.22-15.191-12.153-15.191
			c-5.063,0-9.79,3.46-11.309,9.115c-0.168,0.844-0.422,1.856-0.422,3.038V366.401z"/>
		<path fill="#FBB03B" d="M-1382.876,382.774l-0.591-5.148h-0.253c-2.279,3.207-6.667,6.076-12.491,6.076
			c-8.271,0-12.49-5.823-12.49-11.731c0-9.875,8.777-15.276,24.559-15.191v-0.844c0-3.376-0.928-9.453-9.284-9.453
			c-3.798,0-7.764,1.182-10.634,3.039l-1.688-4.895c3.376-2.194,8.271-3.629,13.419-3.629c12.491,0,15.529,8.524,15.529,16.71
			v15.276c0,3.545,0.169,7.005,0.675,9.79H-1382.876z M-1383.974,361.929c-8.102-0.169-17.301,1.266-17.301,9.199
			c0,4.811,3.207,7.089,7.005,7.089c5.317,0,8.693-3.375,9.875-6.836c0.253-0.76,0.422-1.604,0.422-2.363V361.929z"/>
		<path fill="#FBB03B" d="M-1364.815,322.853h7.427v59.921h-7.427V322.853z"/>
	</g>
	<g id="XMLID_38_">
		<path fill="#66A8DE" d="M-1551.97,310.913v-40.816l-30.398-55.374h14.129l13.558,26.545c3.711,7.278,6.565,13.13,9.562,19.837
			h0.286c2.711-6.28,5.994-12.559,9.705-19.837l13.843-26.545h14.129l-32.254,55.231v40.959H-1551.97z"/>
		<path fill="#66A8DE" d="M-1474.339,310.913v-40.816l-30.398-55.374h14.129l13.558,26.545c3.711,7.278,6.565,13.13,9.562,19.837
			h0.286c2.711-6.28,5.994-12.559,9.705-19.837l13.843-26.545h14.129l-32.254,55.231v40.959H-1474.339z"/>
		<path fill="#66A8DE" d="M-1350.466,306.631c-5.566,1.998-16.555,5.28-29.542,5.28c-14.557,0-26.545-3.71-35.964-12.702
			c-8.278-7.992-13.416-20.836-13.416-35.822c0.143-28.686,19.837-49.665,52.091-49.665c11.132,0,19.837,2.426,23.976,4.424
			l-2.997,10.133c-5.138-2.283-11.56-4.139-21.265-4.139c-23.405,0-38.676,14.557-38.676,38.676c0,24.404,14.7,38.819,37.106,38.819
			c8.135,0,13.701-1.142,16.555-2.569v-28.686h-19.552v-9.99h31.683V306.631z"/>
	</g>
	<g id="XMLID_116_">
		<path fill="#29ABE2" d="M-1569.656,393.424c1.631-0.246,3.57-0.431,5.694-0.431c3.847,0,6.586,0.893,8.402,2.585
			c1.847,1.693,2.924,4.094,2.924,7.448c0,3.385-1.046,6.155-2.985,8.063c-1.939,1.939-5.14,2.985-9.172,2.985
			c-1.908,0-3.508-0.092-4.863-0.246V393.424z M-1566.978,411.767c0.677,0.123,1.662,0.154,2.708,0.154
			c5.725,0,8.833-3.201,8.833-8.802c0.031-4.894-2.739-8.002-8.402-8.002c-1.385,0-2.431,0.123-3.139,0.277V411.767z"/>
		<path fill="#29ABE2" d="M-1547.624,406.935c0.062,3.663,2.4,5.17,5.109,5.17c1.939,0,3.108-0.338,4.124-0.77l0.462,1.939
			c-0.954,0.431-2.585,0.923-4.955,0.923c-4.586,0-7.325-3.016-7.325-7.509c0-4.494,2.647-8.033,6.986-8.033
			c4.863,0,6.156,4.278,6.156,7.017c0,0.554-0.062,0.985-0.093,1.262H-1547.624z M-1539.684,404.996
			c0.031-1.724-0.708-4.401-3.755-4.401c-2.739,0-3.939,2.524-4.155,4.401H-1539.684z"/>
		<path fill="#29ABE2" d="M-1533.716,392.039h2.708v21.852h-2.708V392.039z"/>
		<path fill="#29ABE2" d="M-1523.438,394.809c0.031,0.923-0.646,1.662-1.723,1.662c-0.954,0-1.631-0.738-1.631-1.662
			c0-0.954,0.708-1.693,1.693-1.693C-1524.084,393.116-1523.438,393.855-1523.438,394.809z M-1526.455,413.891v-14.896h2.708v14.896
			H-1526.455z"/>
		<path fill="#29ABE2" d="M-1518.208,398.995l2.924,8.371c0.493,1.354,0.893,2.585,1.201,3.816h0.092
			c0.338-1.231,0.769-2.462,1.262-3.816l2.893-8.371h2.832l-5.848,14.896h-2.585l-5.663-14.896H-1518.208z"/>
		<path fill="#29ABE2" d="M-1503.253,406.935c0.062,3.663,2.4,5.17,5.109,5.17c1.939,0,3.108-0.338,4.124-0.77l0.462,1.939
			c-0.954,0.431-2.585,0.923-4.955,0.923c-4.586,0-7.325-3.016-7.325-7.509c0-4.494,2.647-8.033,6.986-8.033
			c4.863,0,6.156,4.278,6.156,7.017c0,0.554-0.062,0.985-0.093,1.262H-1503.253z M-1495.313,404.996
			c0.031-1.724-0.708-4.401-3.755-4.401c-2.739,0-3.939,2.524-4.155,4.401H-1495.313z"/>
		<path fill="#29ABE2" d="M-1489.346,403.642c0-1.754-0.031-3.263-0.123-4.647h2.37l0.092,2.924h0.123
			c0.677-2,2.308-3.262,4.124-3.262c0.308,0,0.523,0.031,0.77,0.092v2.554c-0.277-0.062-0.554-0.092-0.923-0.092
			c-1.908,0-3.262,1.447-3.632,3.478c-0.062,0.369-0.123,0.8-0.123,1.262v7.94h-2.678V403.642z"/>
		<path fill="#29ABE2" d="M-1477.53,398.995l3.263,8.802c0.338,0.985,0.708,2.154,0.954,3.047h0.062
			c0.277-0.893,0.584-2.031,0.954-3.108l2.955-8.741h2.862l-4.063,10.618c-1.939,5.109-3.262,7.725-5.109,9.325
			c-1.323,1.169-2.647,1.631-3.324,1.754l-0.677-2.277c0.677-0.216,1.57-0.646,2.37-1.324c0.738-0.584,1.662-1.631,2.277-3.016
			c0.123-0.277,0.215-0.492,0.215-0.646c0-0.154-0.062-0.37-0.185-0.708l-5.509-13.727H-1477.53z"/>
		<path fill="#29ABE2" d="M-1457.775,410.628c1.2,0.738,2.955,1.354,4.801,1.354c2.739,0,4.339-1.446,4.339-3.54
			c0-1.939-1.108-3.047-3.909-4.124c-3.385-1.2-5.478-2.955-5.478-5.878c0-3.231,2.677-5.632,6.709-5.632
			c2.124,0,3.662,0.492,4.585,1.016l-0.739,2.185c-0.677-0.37-2.062-0.985-3.939-0.985c-2.831,0-3.908,1.693-3.908,3.108
			c0,1.939,1.262,2.893,4.124,4.001c3.508,1.354,5.293,3.047,5.293,6.094c0,3.201-2.37,5.971-7.263,5.971
			c-2,0-4.186-0.584-5.294-1.323L-1457.775,410.628z"/>
		<path fill="#29ABE2" d="M-1440.636,406.935c0.062,3.663,2.4,5.17,5.109,5.17c1.939,0,3.108-0.338,4.124-0.77l0.462,1.939
			c-0.954,0.431-2.585,0.923-4.955,0.923c-4.586,0-7.325-3.016-7.325-7.509c0-4.494,2.647-8.033,6.986-8.033
			c4.863,0,6.156,4.278,6.156,7.017c0,0.554-0.062,0.985-0.093,1.262H-1440.636z M-1432.696,404.996
			c0.031-1.724-0.708-4.401-3.755-4.401c-2.739,0-3.939,2.524-4.155,4.401H-1432.696z"/>
		<path fill="#29ABE2" d="M-1426.729,403.642c0-1.754-0.031-3.263-0.123-4.647h2.37l0.092,2.924h0.123
			c0.677-2,2.308-3.262,4.124-3.262c0.308,0,0.523,0.031,0.77,0.092v2.554c-0.277-0.062-0.554-0.092-0.923-0.092
			c-1.908,0-3.262,1.447-3.632,3.478c-0.062,0.369-0.123,0.8-0.123,1.262v7.94h-2.678V403.642z"/>
		<path fill="#29ABE2" d="M-1414.851,398.995l2.924,8.371c0.493,1.354,0.893,2.585,1.201,3.816h0.092
			c0.338-1.231,0.769-2.462,1.262-3.816l2.893-8.371h2.832l-5.848,14.896h-2.585l-5.663-14.896H-1414.851z"/>
		<path fill="#29ABE2" d="M-1398.081,394.809c0.031,0.923-0.646,1.662-1.723,1.662c-0.954,0-1.631-0.738-1.631-1.662
			c0-0.954,0.708-1.693,1.693-1.693C-1398.727,393.116-1398.081,393.855-1398.081,394.809z M-1401.097,413.891v-14.896h2.708v14.896
			H-1401.097z"/>
		<path fill="#29ABE2" d="M-1383.279,413.336c-0.708,0.37-2.277,0.862-4.278,0.862c-4.494,0-7.417-3.047-7.417-7.602
			c0-4.586,3.139-7.91,8.002-7.91c1.601,0,3.016,0.4,3.755,0.769l-0.615,2.093c-0.646-0.369-1.662-0.708-3.14-0.708
			c-3.416,0-5.263,2.523-5.263,5.632c0,3.447,2.216,5.571,5.17,5.571c1.539,0,2.555-0.4,3.324-0.739L-1383.279,413.336z"/>
		<path fill="#29ABE2" d="M-1378.788,406.935c0.062,3.663,2.4,5.17,5.109,5.17c1.939,0,3.108-0.338,4.124-0.77l0.462,1.939
			c-0.954,0.431-2.585,0.923-4.955,0.923c-4.586,0-7.325-3.016-7.325-7.509c0-4.494,2.647-8.033,6.986-8.033
			c4.863,0,6.156,4.278,6.156,7.017c0,0.554-0.062,0.985-0.093,1.262H-1378.788z M-1370.848,404.996
			c0.031-1.724-0.708-4.401-3.755-4.401c-2.739,0-3.939,2.524-4.155,4.401H-1370.848z"/>
		<path fill="#29ABE2" d="M-1365.25,411.121c0.8,0.523,2.216,1.077,3.57,1.077c1.97,0,2.893-0.985,2.893-2.216
			c0-1.292-0.769-2-2.77-2.739c-2.678-0.954-3.939-2.431-3.939-4.216c0-2.4,1.939-4.37,5.14-4.37c1.508,0,2.832,0.431,3.663,0.923
			l-0.677,1.97c-0.585-0.369-1.662-0.861-3.047-0.861c-1.601,0-2.493,0.923-2.493,2.031c0,1.231,0.893,1.785,2.832,2.523
			c2.585,0.985,3.909,2.278,3.909,4.494c0,2.616-2.031,4.462-5.571,4.462c-1.631,0-3.139-0.4-4.186-1.016L-1365.25,411.121z"/>
	</g>
	<g id="XMLID_268_">
		<path id="XMLID_278_" d="M-556.089,1177.361c-7.918-0.206-15.65-1.116-23.152-2.643c12.1,3.852,24.984,5.948,38.36,5.948
			c40.718,0,76.912-19.283,100.015-49.193l-7.249-5.068C-473.125,1158.366-512.403,1178.497-556.089,1177.361z"/>
		<path id="XMLID_277_" d="M-425.704,1106.226c-4.076,9.031-9.174,17.496-15.162,25.247l18.361,12.837L-425.704,1106.226z"/>
		<path id="XMLID_276_" d="M-653.642,1111.279c-11.534-9.238-21.013-20.91-27.675-34.214c12.29,49.006,51.892,87.441,102.076,97.654
			C-611.716,1164.379-638.469,1141.263-653.642,1111.279z"/>
		<path id="XMLID_269_" d="M-484.972,941.041c2.33,2.896,4.616,5.711,7.004,8.418c2.501,2.834,5.08,5.243-1.906,6.848
			c3.768,1.398,6.622,1.928,9.475,2.987c-0.109,0.411-0.217,0.705-0.326,0.705c-1.478,0-2.956,0-4.434,0
			c-0.083,2-0.166,1.322-0.249,1.718c1.516,0.44,3.031,1.144,5.403,1.832c-1.619,1.838-2.892,3.718-4.462,5.138
			c-4.416,3.993-9.368,7.552-13.266,11.983c-1.919,2.181-2.02,6.021-2.863,9.114c-0.523,1.923-0.894,3.904-1.337,5.867
			c-6.544-1.321-12.588-2.1-15.933-8.235c-2.888-5.298-5.617-10.478,2.245-15.717c-0.788-0.111-1.575-0.22-2.363-0.331
			c-1.356,0.549-2.712,1.099-4.069,1.648c-0.311-0.498-0.622-0.995-0.933-1.493c1.403-0.904,2.805-1.808,3.372-2.173
			c-1.248-2.393-2.784-4.7-3.701-7.231c-2.015-5.557-5.35-8.895-11.668-7.428c-0.182-2.413-0.312-4.148-0.471-6.256
			c2.003-0.791,4.386-1.733,7.735-3.056c-4.7-2.507-4.303-1.959-7.534,0.378c-3.691,2.67-8.181,3.997-11.649,5.71
			c-1.998,2.846-3.773,5.532-6.158,8.532c-2.871,0-7.502,0-13.135,0c2.808-3,4.943-5.327,7.092-7.748
			c-0.706-0.765-1.501-1.504-2.136-2.192c3.014-0.786,5.911-1.483,9.324-2.373c-5.977-0.895-11.169-1.642-16.361-2.42
			c0.057-0.569,0.114-1.123,0.171-1.693c13.271-1.258,26.142-6.387,40.045-1.997c3.44,1.086,8.655-2.157,12.585-4.28
			c1.616-0.873,3.078-2.052,4.583-2.801c-12.572-4.194-26.007-6.498-39.988-6.498c-40.622,0-76.74,19.195-99.851,48.985
			c3.749,0.793,7.508,1.756,11.22,2.111c3.142,0.301,6.324,0.6,9.463,0.433c8.211-0.435,16.406-1.484,24.451,1.357
			c3.422,1.208,6.92,2.574,10.477,2.931c4.524,0.453,9.166,0.176,13.705-0.293c1.117-0.115,2.031-2.194,3.732-4.179
			c0.41,1.209,0.9,2.656,1.605,4.737c1.145-0.922,2.414-1.945,4.09-3.294c-2.495-2.192-7.014-3.751-2.294-7.358
			c3.541,3.769,6.918,7.363,10.299,10.962c4.478-3.805,4.474-4.243-0.173-7.328c-4.268-2.833-3.838-5.946,1.315-8.631
			c0.075,0.666,0.149,1.321,0.223,1.982c1.736-0.785,3.466-1.657,5.244-1.77c1.124-0.071,2.388,1.714,3.964,3.221
			c12.065-3.136,15.643,10.134,24.872,15.134c-2.408,0-4.817,0-7.998,0c1.432,2,2.796,3.984,4.414,6.074
			c-4.158,2.482-7.517,2.975-11.173-0.788c-1.356-1.395-4.318-1.136-5.112-1.33c1.541-2.276,4.28-4.647,4.739-7.438
			c0.413-2.511-8.726-5.678-13.091-4.927c0.24,2.277,0.481,4.569,0.541,5.145c-5.724,4.774-10.994,8.533-15.458,13.078
			c-4.5,4.581-3.141,8.111,3.139,10.378c1.54,0.556,2.933,1.525,4.478,2.057c3.813,1.312,7.694,2.377,8.483,7.3
			c0.108,0.675,1.525,1.14,2.439,1.774c3.533-7.242,4.264-14.434,2.246-22.198c5.679,0.067,10.294,0.313,12.307,6.431
			c0.287,0.871,4.074,0.59,8.003,1.048c2.476,2.954,6.456,7.703,11.613,13.856c-5.984,1.295-11.063,2.395-16.085,3.482
			c1.931,2.886,3.84,5.74,6.008,8.98c-1.388,0-3.164-0.158-4.897,0.047c-1.531,0.181-3.598,0.279-4.418,1.259
			c-3.503,4.188-6.645,8.68-9.883,13.087c-0.475,0.647-0.572,1.781-1.163,2.101c-5.803,3.145-7.843,7.552-3.62,14.251
			c-0.619-0.003-1.238-0.006-1.857-0.01c-0.729-0.936-1.345-1.997-2.211-2.782c-1.641-1.488-3.386-3.928-5.158-3.992
			c-4.168-0.149-8.778,0.016-12.424,1.727c-2.242,1.053-3.998,5.127-4.183,7.962c-0.155,2.369,1.741,5.909,3.774,7.023
			c1.382,0.758,4.548-1.831,6.96-2.815c0.911-0.372,1.946-0.439,3.523-0.771c-0.362,2.586-0.664,4.74-1.026,7.323
			c2.114,0.464,4.208,0.924,5.174,1.136c1.538,4.084,2.777,7.373,3.92,10.408c-0.661-0.36-2.893-0.934-4.138-2.367
			c-4.856-5.588-11.085-7.702-18.131-9.147c-4.783-0.981-9.275-2.814-11.712-8.817c-2.133-5.256-7.407-9.238-11.615-14.158
			c-0.295,1.279-0.518,2.245-0.645,2.796c-2.729-2.813-5.873-5.395-8.15-8.594c-2.109-2.962-4.938-6.768-4.591-9.884
			c1.425-12.788-6.469-21.058-13.48-29.547c-2.284-2.765-7.028-4.042-10.885-4.828c-4.895-0.998-10.175-1.626-15.007-0.785
			c-2.517,0.438-4.427,4.37-6.633,6.747c-1.166-1.406-1.909-2.804-3.067-3.601c-0.515-0.355-1.042-0.693-1.567-1.033
			c-7.086,15.78-11.06,33.26-11.06,51.679c0,20.494,4.911,39.83,13.572,56.946c16.835,13.484,38.049,21.779,61.276,22.382
			c16.805,0.437,32.757-3.215,46.926-10.033c0,0,26.463-16.271,33.941-26.291c2.687-3.18,5.188-6.523,7.478-10.02l-24.345-17.021
			l96.336-39.363l6.325,75.292c7.146-15.836,11.157-33.391,11.157-51.893C-414.547,1004.64-443.251,961.669-484.972,941.041z
			 M-594.763,981c-0.068,0-0.136-1.536-0.204-2.136c1.218-0.511,2.436-1.189,3.08-1.459c-1.819-1.61-3.927-3.56-6.035-5.426
			c-3.052,0.631-5.789,5.722-9.137,0.608c0.731-9.057,6.44-5.897,11.829-4.502c-0.791,1.17-1.499,2.205-2.206,3.251
			c5.294-0.464,10.922-1.872,15.759-0.6c3.043,0.8,4.899,6.263,7.676,10.263C-581.996,981-588.379,981-594.763,981z
			 M-565.642,949.922c0.883-1.196,1.951-2.642,3.4-4.604c3.265,2.123,6.266,4.075,9.586,6.234
			C-558.961,957.214-562.511,954.769-565.642,949.922z M-560.544,961.785c5.538,0.633,11.144,1.273,18.154,2.073
			C-551.487,967.722-559.902,965.953-560.544,961.785z M-516.166,1094.958c-5.676,5.711-20.218,19.824-31.333,26.147
			c-4.125-6.135-4.641-15.017-0.761-21.139c0.621-0.98,0.941-2.262,1.051-3.437c0.759-8.119,4.609-11.134,12.171-8.691
			C-528.647,1089.902-522.405,1092.439-516.166,1094.958z M-475.459,977.506c4.535,0.249,8.537,0.469,12.54,0.689
			C-469.816,985.094-472.577,984.593-475.459,977.506z"/>
	</g>
	<g id="XMLID_267_">
		<path d="M-619.738,1367.243c-3.292,1.181-9.79,3.122-17.47,3.122c-8.608,0-15.698-2.194-21.268-7.511
			c-4.895-4.727-7.934-12.322-7.934-21.184c0.084-16.964,11.731-29.37,30.805-29.37c6.583,0,11.731,1.435,14.179,2.616l-1.772,5.992
			c-3.038-1.351-6.836-2.447-12.575-2.447c-13.841,0-22.872,8.608-22.872,22.871c0,14.432,8.693,22.956,21.943,22.956
			c4.811,0,8.102-0.676,9.79-1.52v-16.964h-11.562v-5.907h18.736V1367.243z"/>
		<path d="M-608.766,1309.854h7.427v59.921h-7.427V1309.854z"/>
		<path d="M-551.884,1349.013c0,15.107-10.465,21.69-20.339,21.69c-11.056,0-19.58-8.103-19.58-21.015
			c0-13.673,8.946-21.69,20.255-21.69C-559.817,1327.998-551.884,1336.522-551.884,1349.013z M-584.292,1349.436
			c0,8.945,5.148,15.697,12.406,15.697c7.089,0,12.406-6.667,12.406-15.866c0-6.921-3.46-15.698-12.237-15.698
			S-584.292,1341.671-584.292,1349.436z"/>
		<path d="M-542.853,1369.774c0.169-2.785,0.338-6.92,0.338-10.549v-49.372h7.342v25.656h0.169
			c2.616-4.558,7.342-7.512,13.926-7.512c10.127,0,17.301,8.44,17.217,20.847c0,14.601-9.199,21.858-18.314,21.858
			c-5.908,0-10.634-2.279-13.672-7.681h-0.253l-0.338,6.752H-542.853z M-535.173,1353.401c0,0.929,0.169,1.857,0.337,2.701
			c1.435,5.148,5.74,8.692,11.14,8.692c7.765,0,12.406-6.329,12.406-15.697c0-8.187-4.219-15.191-12.152-15.191
			c-5.064,0-9.791,3.46-11.31,9.115c-0.168,0.844-0.422,1.856-0.422,3.038V1353.401z"/>
		<path d="M-471.877,1369.774l-0.59-5.147h-0.254c-2.279,3.207-6.667,6.076-12.49,6.076c-8.271,0-12.49-5.823-12.49-11.731
			c0-9.874,8.776-15.275,24.559-15.191v-0.844c0-3.376-0.928-9.452-9.283-9.452c-3.799,0-7.765,1.182-10.635,3.038l-1.688-4.895
			c3.376-2.194,8.271-3.63,13.419-3.63c12.491,0,15.528,8.524,15.528,16.711v15.275c0,3.545,0.17,7.005,0.676,9.79H-471.877z
			 M-472.974,1348.929c-8.103-0.169-17.302,1.266-17.302,9.199c0,4.811,3.207,7.089,7.006,7.089c5.316,0,8.692-3.375,9.874-6.836
			c0.253-0.76,0.422-1.604,0.422-2.363V1348.929z"/>
		<path d="M-453.815,1309.854h7.427v59.921h-7.427V1309.854z"/>
	</g>
	<g id="XMLID_266_">
		<path d="M-640.97,1297.912v-40.816l-30.398-55.374h14.129l13.558,26.546c3.711,7.278,6.565,13.13,9.562,19.837h0.286
			c2.711-6.279,5.994-12.559,9.705-19.837l13.843-26.546h14.129l-32.254,55.231v40.959H-640.97z"/>
		<path d="M-563.339,1297.912v-40.816l-30.398-55.374h14.129l13.558,26.546c3.711,7.278,6.565,13.13,9.562,19.837h0.286
			c2.711-6.279,5.994-12.559,9.705-19.837l13.843-26.546h14.128l-32.253,55.231v40.959H-563.339z"/>
		<path d="M-439.467,1293.631c-5.565,1.998-16.555,5.28-29.542,5.28c-14.557,0-26.545-3.71-35.964-12.701
			c-8.278-7.992-13.416-20.837-13.416-35.822c0.143-28.686,19.838-49.665,52.092-49.665c11.132,0,19.837,2.427,23.976,4.425
			l-2.997,10.133c-5.138-2.283-11.56-4.139-21.265-4.139c-23.405,0-38.676,14.557-38.676,38.676c0,24.404,14.7,38.818,37.106,38.818
			c8.135,0,13.7-1.142,16.555-2.568v-28.687h-19.552v-9.99h31.683V1293.631z"/>
	</g>
	<g id="XMLID_265_">
		<path d="M-658.656,1380.424c1.631-0.246,3.57-0.431,5.694-0.431c3.847,0,6.586,0.893,8.402,2.585
			c1.847,1.693,2.924,4.094,2.924,7.448c0,3.386-1.046,6.155-2.985,8.063c-1.939,1.939-5.14,2.985-9.172,2.985
			c-1.908,0-3.508-0.092-4.863-0.246V1380.424z M-655.978,1398.768c0.677,0.123,1.662,0.153,2.708,0.153
			c5.725,0,8.833-3.2,8.833-8.802c0.031-4.894-2.739-8.002-8.402-8.002c-1.385,0-2.431,0.123-3.139,0.276V1398.768z"/>
		<path d="M-636.624,1393.936c0.062,3.662,2.4,5.17,5.109,5.17c1.939,0,3.108-0.338,4.124-0.77l0.462,1.939
			c-0.954,0.431-2.585,0.923-4.955,0.923c-4.586,0-7.325-3.016-7.325-7.509c0-4.494,2.647-8.033,6.986-8.033
			c4.863,0,6.156,4.278,6.156,7.018c0,0.554-0.062,0.984-0.093,1.262H-636.624z M-628.684,1391.996
			c0.031-1.724-0.708-4.401-3.755-4.401c-2.739,0-3.939,2.524-4.155,4.401H-628.684z"/>
		<path d="M-622.716,1379.039h2.708v21.852h-2.708V1379.039z"/>
		<path d="M-612.438,1381.81c0.031,0.923-0.646,1.661-1.723,1.661c-0.954,0-1.631-0.738-1.631-1.661
			c0-0.954,0.708-1.693,1.693-1.693C-613.084,1380.116-612.438,1380.855-612.438,1381.81z M-615.455,1400.891v-14.896h2.708v14.896
			H-615.455z"/>
		<path d="M-607.208,1385.995l2.924,8.371c0.493,1.354,0.893,2.585,1.201,3.816h0.092c0.338-1.231,0.769-2.462,1.262-3.816
			l2.893-8.371h2.832l-5.848,14.896h-2.585l-5.663-14.896H-607.208z"/>
		<path d="M-592.253,1393.936c0.062,3.662,2.4,5.17,5.109,5.17c1.939,0,3.108-0.338,4.124-0.77l0.462,1.939
			c-0.954,0.431-2.585,0.923-4.955,0.923c-4.586,0-7.325-3.016-7.325-7.509c0-4.494,2.647-8.033,6.986-8.033
			c4.863,0,6.156,4.278,6.156,7.018c0,0.554-0.062,0.984-0.093,1.262H-592.253z M-584.313,1391.996
			c0.031-1.724-0.708-4.401-3.755-4.401c-2.739,0-3.939,2.524-4.155,4.401H-584.313z"/>
		<path d="M-578.346,1390.643c0-1.755-0.031-3.263-0.123-4.647h2.37l0.092,2.924h0.123c0.677-2.001,2.308-3.263,4.124-3.263
			c0.308,0,0.523,0.031,0.77,0.093v2.554c-0.277-0.062-0.554-0.092-0.923-0.092c-1.908,0-3.262,1.446-3.632,3.478
			c-0.062,0.369-0.123,0.8-0.123,1.262v7.94h-2.678V1390.643z"/>
		<path d="M-566.53,1385.995l3.263,8.802c0.338,0.985,0.708,2.154,0.954,3.047h0.062c0.277-0.893,0.584-2.031,0.954-3.108
			l2.955-8.74h2.862l-4.063,10.618c-1.939,5.108-3.262,7.725-5.109,9.325c-1.323,1.169-2.647,1.631-3.324,1.754l-0.677-2.277
			c0.677-0.216,1.57-0.646,2.37-1.323c0.738-0.585,1.662-1.631,2.277-3.017c0.123-0.276,0.215-0.492,0.215-0.646
			c0-0.154-0.062-0.37-0.185-0.708l-5.509-13.727H-566.53z"/>
		<path d="M-546.775,1397.629c1.2,0.738,2.955,1.354,4.801,1.354c2.739,0,4.339-1.446,4.339-3.539c0-1.939-1.108-3.047-3.909-4.124
			c-3.385-1.2-5.478-2.955-5.478-5.879c0-3.231,2.677-5.632,6.709-5.632c2.124,0,3.662,0.492,4.585,1.016l-0.739,2.186
			c-0.677-0.37-2.062-0.985-3.939-0.985c-2.831,0-3.908,1.693-3.908,3.108c0,1.939,1.262,2.894,4.124,4.001
			c3.508,1.354,5.293,3.047,5.293,6.094c0,3.201-2.37,5.971-7.263,5.971c-2,0-4.186-0.584-5.294-1.323L-546.775,1397.629z"/>
		<path d="M-529.637,1393.936c0.063,3.662,2.4,5.17,5.109,5.17c1.939,0,3.108-0.338,4.124-0.77l0.462,1.939
			c-0.954,0.431-2.586,0.923-4.955,0.923c-4.586,0-7.325-3.016-7.325-7.509c0-4.494,2.647-8.033,6.986-8.033
			c4.862,0,6.155,4.278,6.155,7.018c0,0.554-0.062,0.984-0.092,1.262H-529.637z M-521.695,1391.996
			c0.03-1.724-0.709-4.401-3.756-4.401c-2.738,0-3.939,2.524-4.154,4.401H-521.695z"/>
		<path d="M-515.729,1390.643c0-1.755-0.031-3.263-0.123-4.647h2.37l0.093,2.924h0.123c0.676-2.001,2.308-3.263,4.123-3.263
			c0.309,0,0.523,0.031,0.77,0.093v2.554c-0.277-0.062-0.554-0.092-0.923-0.092c-1.908,0-3.263,1.446-3.632,3.478
			c-0.062,0.369-0.123,0.8-0.123,1.262v7.94h-2.678V1390.643z"/>
		<path d="M-503.852,1385.995l2.924,8.371c0.493,1.354,0.893,2.585,1.201,3.816h0.092c0.339-1.231,0.77-2.462,1.262-3.816
			l2.894-8.371h2.831l-5.848,14.896h-2.585l-5.663-14.896H-503.852z"/>
		<path d="M-487.081,1381.81c0.03,0.923-0.646,1.661-1.724,1.661c-0.953,0-1.631-0.738-1.631-1.661c0-0.954,0.708-1.693,1.693-1.693
			C-487.727,1380.116-487.081,1380.855-487.081,1381.81z M-490.098,1400.891v-14.896h2.709v14.896H-490.098z"/>
		<path d="M-472.279,1400.337c-0.707,0.369-2.277,0.861-4.277,0.861c-4.494,0-7.418-3.047-7.418-7.602
			c0-4.586,3.14-7.909,8.002-7.909c1.602,0,3.017,0.399,3.756,0.769l-0.615,2.093c-0.646-0.369-1.662-0.707-3.141-0.707
			c-3.416,0-5.262,2.523-5.262,5.632c0,3.447,2.215,5.57,5.17,5.57c1.539,0,2.555-0.399,3.324-0.738L-472.279,1400.337z"/>
		<path d="M-467.788,1393.936c0.062,3.662,2.4,5.17,5.108,5.17c1.939,0,3.109-0.338,4.125-0.77l0.461,1.939
			c-0.953,0.431-2.585,0.923-4.955,0.923c-4.586,0-7.324-3.016-7.324-7.509c0-4.494,2.646-8.033,6.986-8.033
			c4.862,0,6.155,4.278,6.155,7.018c0,0.554-0.062,0.984-0.093,1.262H-467.788z M-459.848,1391.996
			c0.031-1.724-0.708-4.401-3.755-4.401c-2.739,0-3.939,2.524-4.155,4.401H-459.848z"/>
		<path d="M-454.25,1398.121c0.801,0.523,2.217,1.077,3.57,1.077c1.971,0,2.893-0.985,2.893-2.216c0-1.293-0.769-2.001-2.77-2.739
			c-2.678-0.954-3.939-2.432-3.939-4.217c0-2.4,1.939-4.37,5.141-4.37c1.508,0,2.831,0.431,3.662,0.923l-0.678,1.97
			c-0.584-0.369-1.662-0.861-3.047-0.861c-1.6,0-2.492,0.924-2.492,2.031c0,1.231,0.893,1.785,2.831,2.523
			c2.585,0.985,3.909,2.278,3.909,4.494c0,2.615-2.031,4.462-5.571,4.462c-1.631,0-3.14-0.399-4.186-1.016L-454.25,1398.121z"/>
	</g>
	<g id="XMLID_141_">
		<path id="XMLID_151_" fill="#FFFFFF" d="M495.911,414.361c-7.918-0.206-15.65-1.116-23.152-2.643
			c12.1,3.852,24.984,5.948,38.36,5.948c40.718,0,76.912-19.283,100.015-49.193l-7.249-5.068
			C578.875,395.366,539.597,415.497,495.911,414.361z"/>
		<path id="XMLID_150_" fill="#FFFFFF" d="M626.296,343.226c-4.076,9.032-9.174,17.496-15.162,25.247l18.361,12.837L626.296,343.226
			z"/>
		<path id="XMLID_149_" fill="#FFFFFF" d="M398.358,348.279c-11.534-9.238-21.013-20.91-27.675-34.215
			c12.29,49.006,51.892,87.441,102.076,97.654C440.284,401.379,413.531,378.263,398.358,348.279z"/>
		<path id="XMLID_142_" fill="#FFFFFF" d="M567.028,178.041c2.33,2.896,4.616,5.711,7.004,8.418c2.501,2.834,5.08,5.243-1.906,6.848
			c3.768,1.398,6.622,1.928,9.475,2.987c-0.109,0.411-0.217,0.705-0.326,0.705c-1.478,0-2.956,0-4.434,0
			c-0.083,2-0.166,1.322-0.249,1.718c1.516,0.44,3.031,1.144,5.403,1.832c-1.619,1.838-2.892,3.718-4.462,5.138
			c-4.416,3.993-9.368,7.552-13.266,11.983c-1.919,2.181-2.02,6.021-2.863,9.114c-0.523,1.923-0.894,3.904-1.337,5.867
			c-6.544-1.321-12.588-2.1-15.933-8.235c-2.888-5.298-5.617-10.478,2.245-15.717c-0.788-0.111-1.575-0.22-2.363-0.331
			c-1.356,0.549-2.712,1.099-4.068,1.648c-0.311-0.498-0.622-0.995-0.933-1.493c1.403-0.904,2.805-1.808,3.372-2.173
			c-1.248-2.393-2.784-4.7-3.701-7.231c-2.015-5.557-5.35-8.895-11.668-7.428c-0.182-2.413-0.312-4.148-0.471-6.256
			c2.003-0.791,4.386-1.733,7.735-3.056c-4.7-2.507-4.303-1.959-7.534,0.378c-3.691,2.67-8.181,3.997-11.649,5.71
			c-1.998,2.846-3.773,5.532-6.158,8.532c-2.871,0-7.502,0-13.135,0c2.808-3,4.943-5.327,7.092-7.748
			c-0.707-0.765-1.501-1.504-2.136-2.192c3.014-0.786,5.911-1.483,9.324-2.373c-5.977-0.895-11.169-1.642-16.361-2.42
			c0.057-0.569,0.114-1.123,0.171-1.693c13.271-1.258,26.142-6.387,40.045-1.997c3.44,1.086,8.655-2.157,12.585-4.28
			c1.616-0.873,3.078-2.052,4.583-2.801c-12.572-4.194-26.007-6.498-39.988-6.498c-40.622,0-76.74,19.195-99.851,48.985
			c3.749,0.793,7.508,1.756,11.22,2.111c3.142,0.301,6.324,0.6,9.463,0.434c8.211-0.435,16.406-1.484,24.451,1.357
			c3.422,1.208,6.92,2.574,10.477,2.931c4.524,0.453,9.166,0.176,13.705-0.293c1.117-0.115,2.031-2.194,3.732-4.179
			c0.41,1.21,0.9,2.656,1.605,4.738c1.145-0.922,2.414-1.945,4.09-3.294c-2.495-2.192-7.014-3.751-2.294-7.358
			c3.541,3.769,6.918,7.363,10.299,10.962c4.478-3.804,4.474-4.243-0.173-7.328c-4.268-2.833-3.838-5.946,1.315-8.631
			c0.075,0.666,0.149,1.321,0.223,1.982c1.736-0.785,3.466-1.657,5.244-1.77c1.124-0.071,2.388,1.714,3.964,3.221
			C520.657,205.731,524.234,219,533.464,224c-2.408,0-4.817,0-7.998,0c1.432,2,2.796,3.984,4.414,6.074
			c-4.158,2.482-7.517,2.975-11.173-0.788c-1.356-1.395-4.318-1.136-5.112-1.33c1.541-2.276,4.28-4.647,4.739-7.438
			c0.413-2.511-8.726-5.678-13.091-4.927c0.24,2.277,0.481,4.569,0.541,5.145c-5.724,4.774-10.994,8.533-15.458,13.078
			c-4.5,4.581-3.141,8.111,3.139,10.378c1.54,0.556,2.933,1.525,4.478,2.057c3.813,1.312,7.694,2.377,8.483,7.3
			c0.108,0.675,1.525,1.14,2.439,1.774c3.533-7.242,4.264-14.434,2.246-22.198c5.679,0.067,10.294,0.313,12.307,6.431
			c0.287,0.871,4.074,0.59,8.003,1.048c2.476,2.954,6.456,7.703,11.613,13.856c-5.984,1.296-11.063,2.395-16.085,3.482
			c1.931,2.886,3.84,5.74,6.008,8.98c-1.388,0-3.164-0.158-4.897,0.047c-1.531,0.181-3.598,0.279-4.418,1.259
			c-3.503,4.188-6.645,8.68-9.883,13.087c-0.475,0.647-0.572,1.781-1.163,2.101c-5.803,3.145-7.843,7.551-3.62,14.251
			c-0.619-0.003-1.238-0.006-1.857-0.01c-0.729-0.936-1.345-1.997-2.211-2.782c-1.641-1.488-3.386-3.928-5.158-3.992
			c-4.168-0.149-8.778,0.016-12.424,1.727c-2.242,1.053-3.998,5.127-4.183,7.961c-0.155,2.369,1.741,5.909,3.774,7.023
			c1.382,0.758,4.548-1.831,6.96-2.815c0.911-0.372,1.946-0.439,3.523-0.771c-0.362,2.586-0.664,4.74-1.026,7.323
			c2.114,0.464,4.208,0.924,5.174,1.136c1.538,4.084,2.777,7.373,3.92,10.408c-0.661-0.36-2.893-0.935-4.138-2.367
			c-4.856-5.588-11.085-7.702-18.131-9.147c-4.783-0.981-9.275-2.814-11.712-8.817c-2.133-5.256-7.407-9.238-11.615-14.158
			c-0.295,1.279-0.518,2.245-0.645,2.796c-2.729-2.813-5.873-5.395-8.15-8.594c-2.109-2.962-4.938-6.768-4.591-9.884
			c1.425-12.788-6.469-21.058-13.48-29.547c-2.284-2.765-7.028-4.042-10.885-4.828c-4.895-0.998-10.175-1.626-15.007-0.785
			c-2.517,0.438-4.427,4.37-6.633,6.747c-1.165-1.406-1.909-2.804-3.066-3.601c-0.515-0.355-1.042-0.693-1.567-1.033
			c-7.086,15.78-11.06,33.26-11.06,51.679c0,20.494,4.911,39.83,13.572,56.946c16.835,13.484,38.049,21.779,61.276,22.382
			c16.805,0.437,32.757-3.215,46.926-10.033c0,0,26.463-16.271,33.941-26.291c2.687-3.18,5.188-6.523,7.478-10.02l-24.345-17.021
			l96.336-39.363l6.325,75.292c7.146-15.836,11.157-33.391,11.157-51.893C637.453,241.64,608.749,198.669,567.028,178.041z
			 M457.237,218c-0.068,0-0.136-1.536-0.204-2.136c1.218-0.511,2.437-1.189,3.08-1.459c-1.819-1.61-3.927-3.56-6.035-5.426
			c-3.052,0.631-5.789,5.722-9.137,0.608c0.731-9.057,6.44-5.897,11.829-4.502c-0.791,1.17-1.499,2.205-2.206,3.251
			c5.294-0.464,10.922-1.872,15.759-0.6c3.043,0.8,4.899,6.263,7.676,10.263C470.004,218,463.621,218,457.237,218z M486.358,186.922
			c0.883-1.196,1.951-2.642,3.4-4.604c3.265,2.123,6.266,4.075,9.586,6.234C493.039,194.214,489.489,191.769,486.358,186.922z
			 M491.456,198.785c5.538,0.632,11.144,1.273,18.154,2.073C500.513,204.722,492.098,202.953,491.456,198.785z M535.834,331.958
			c-5.676,5.711-20.218,19.824-31.333,26.147c-4.126-6.136-4.641-15.017-0.761-21.139c0.621-0.98,0.941-2.262,1.051-3.437
			c0.759-8.119,4.609-11.134,12.171-8.691C523.353,326.902,529.595,329.439,535.834,331.958z M576.541,214.506
			c4.535,0.249,8.537,0.469,12.54,0.689C582.184,222.094,579.423,221.593,576.541,214.506z"/>
	</g>
	<g id="XMLID_140_">
		<path fill="#FFFFFF" d="M432.262,604.243c-3.291,1.181-9.79,3.123-17.471,3.123c-8.607,0-15.697-2.194-21.268-7.511
			c-4.895-4.726-7.934-12.322-7.934-21.184c0.085-16.964,11.732-29.37,30.805-29.37c6.584,0,11.732,1.435,14.18,2.617l-1.773,5.992
			c-3.037-1.35-6.836-2.447-12.574-2.447c-13.842,0-22.871,8.608-22.871,22.872c0,14.432,8.692,22.956,21.942,22.956
			c4.811,0,8.103-0.675,9.79-1.519v-16.964h-11.563v-5.908h18.736V604.243z"/>
		<path fill="#FFFFFF" d="M443.234,546.853h7.426v59.921h-7.426V546.853z"/>
		<path fill="#FFFFFF" d="M500.116,586.013c0,15.107-10.465,21.69-20.339,21.69c-11.057,0-19.58-8.102-19.58-21.015
			c0-13.672,8.945-21.69,20.255-21.69C492.184,564.998,500.116,573.522,500.116,586.013z M467.708,586.435
			c0,8.946,5.148,15.698,12.406,15.698c7.089,0,12.406-6.667,12.406-15.867c0-6.92-3.46-15.698-12.237-15.698
			S467.708,578.67,467.708,586.435z"/>
		<path fill="#FFFFFF" d="M509.146,606.774c0.17-2.785,0.338-6.92,0.338-10.549v-49.372h7.343v25.656h0.169
			c2.616-4.557,7.342-7.511,13.926-7.511c10.127,0,17.301,8.44,17.217,20.846c0,14.601-9.199,21.858-18.314,21.858
			c-5.908,0-10.634-2.279-13.672-7.68h-0.254l-0.338,6.752H509.146z M516.827,590.401c0,0.929,0.169,1.857,0.337,2.701
			c1.436,5.148,5.74,8.693,11.141,8.693c7.765,0,12.406-6.33,12.406-15.698c0-8.187-4.219-15.191-12.152-15.191
			c-5.064,0-9.791,3.46-11.31,9.115c-0.169,0.844-0.422,1.856-0.422,3.038V590.401z"/>
		<path fill="#FFFFFF" d="M580.123,606.774l-0.59-5.148h-0.254c-2.279,3.207-6.667,6.076-12.49,6.076
			c-8.271,0-12.49-5.823-12.49-11.731c0-9.875,8.776-15.276,24.559-15.191v-0.844c0-3.376-0.928-9.453-9.283-9.453
			c-3.799,0-7.765,1.182-10.635,3.039l-1.688-4.895c3.376-2.194,8.271-3.629,13.419-3.629c12.491,0,15.528,8.524,15.528,16.71
			v15.276c0,3.545,0.17,7.005,0.676,9.79H580.123z M579.026,585.929c-8.103-0.169-17.302,1.266-17.302,9.199
			c0,4.811,3.207,7.089,7.006,7.089c5.316,0,8.692-3.375,9.874-6.836c0.253-0.76,0.422-1.604,0.422-2.363V585.929z"/>
		<path fill="#FFFFFF" d="M598.185,546.853h7.427v59.921h-7.427V546.853z"/>
	</g>
	<g id="XMLID_139_">
		<path fill="#FFFFFF" d="M411.029,534.913v-40.816l-30.398-55.374h14.129l13.559,26.545c3.711,7.278,6.564,13.13,9.562,19.837
			h0.286c2.711-6.28,5.993-12.559,9.704-19.837l13.843-26.545h14.129l-32.254,55.231v40.959H411.029z"/>
		<path fill="#FFFFFF" d="M488.66,534.913v-40.816l-30.398-55.374h14.129l13.559,26.545c3.711,7.278,6.564,13.13,9.562,19.837h0.286
			c2.711-6.28,5.993-12.559,9.704-19.837l13.843-26.545h14.129l-32.254,55.231v40.959H488.66z"/>
		<path fill="#FFFFFF" d="M612.533,530.631c-5.565,1.998-16.555,5.28-29.542,5.28c-14.557,0-26.545-3.71-35.964-12.702
			c-8.277-7.992-13.416-20.836-13.416-35.822c0.143-28.686,19.838-49.665,52.092-49.665c11.132,0,19.838,2.426,23.977,4.424
			l-2.998,10.133c-5.137-2.283-11.56-4.139-21.264-4.139c-23.406,0-38.676,14.557-38.676,38.676
			c0,24.404,14.699,38.819,37.105,38.819c8.135,0,13.701-1.142,16.555-2.569v-28.686h-19.552v-9.99h31.683V530.631z"/>
	</g>
	<g id="XMLID_138_">
		<path fill="#FFFFFF" d="M393.344,617.424c1.632-0.246,3.57-0.431,5.694-0.431c3.847,0,6.587,0.893,8.402,2.585
			c1.847,1.693,2.924,4.094,2.924,7.448c0,3.385-1.046,6.155-2.985,8.063c-1.939,1.939-5.141,2.985-9.172,2.985
			c-1.908,0-3.508-0.092-4.863-0.246V617.424z M396.021,635.767c0.678,0.123,1.662,0.154,2.709,0.154
			c5.725,0,8.833-3.201,8.833-8.802c0.03-4.894-2.739-8.002-8.402-8.002c-1.385,0-2.431,0.123-3.14,0.277V635.767z"/>
		<path fill="#FFFFFF" d="M415.376,630.935c0.062,3.663,2.4,5.17,5.108,5.17c1.939,0,3.109-0.338,4.125-0.77l0.461,1.939
			c-0.953,0.431-2.585,0.923-4.955,0.923c-4.586,0-7.324-3.016-7.324-7.509c0-4.494,2.646-8.033,6.986-8.033
			c4.862,0,6.155,4.278,6.155,7.017c0,0.554-0.062,0.985-0.093,1.262H415.376z M423.316,628.996
			c0.031-1.724-0.708-4.401-3.755-4.401c-2.739,0-3.939,2.524-4.155,4.401H423.316z"/>
		<path fill="#FFFFFF" d="M429.283,616.039h2.709v21.852h-2.709V616.039z"/>
		<path fill="#FFFFFF" d="M439.562,618.809c0.03,0.923-0.646,1.662-1.724,1.662c-0.953,0-1.631-0.738-1.631-1.662
			c0-0.954,0.708-1.693,1.693-1.693C438.916,617.116,439.562,617.855,439.562,618.809z M436.545,637.891v-14.896h2.709v14.896
			H436.545z"/>
		<path fill="#FFFFFF" d="M444.792,622.995l2.924,8.371c0.493,1.354,0.893,2.585,1.2,3.816h0.093
			c0.339-1.231,0.769-2.462,1.262-3.816l2.894-8.371h2.831l-5.848,14.896h-2.585l-5.664-14.896H444.792z"/>
		<path fill="#FFFFFF" d="M459.746,630.935c0.063,3.663,2.4,5.17,5.109,5.17c1.939,0,3.108-0.338,4.124-0.77l0.462,1.939
			c-0.954,0.431-2.586,0.923-4.955,0.923c-4.586,0-7.325-3.016-7.325-7.509c0-4.494,2.647-8.033,6.986-8.033
			c4.862,0,6.155,4.278,6.155,7.017c0,0.554-0.062,0.985-0.092,1.262H459.746z M467.688,628.996c0.03-1.724-0.709-4.401-3.756-4.401
			c-2.738,0-3.939,2.524-4.154,4.401H467.688z"/>
		<path fill="#FFFFFF" d="M473.654,627.642c0-1.754-0.031-3.263-0.123-4.647h2.37l0.093,2.924h0.123
			c0.676-2,2.308-3.262,4.123-3.262c0.309,0,0.523,0.031,0.77,0.092v2.554c-0.277-0.062-0.554-0.092-0.923-0.092
			c-1.908,0-3.263,1.447-3.632,3.478c-0.062,0.369-0.123,0.8-0.123,1.262v7.94h-2.678V627.642z"/>
		<path fill="#FFFFFF" d="M485.471,622.995l3.262,8.802c0.339,0.985,0.708,2.154,0.955,3.047h0.061
			c0.277-0.893,0.585-2.031,0.955-3.108l2.954-8.741h2.862l-4.063,10.618c-1.939,5.109-3.263,7.725-5.109,9.325
			c-1.323,1.169-2.646,1.631-3.324,1.754l-0.677-2.277c0.677-0.216,1.569-0.646,2.37-1.324c0.738-0.584,1.662-1.631,2.277-3.016
			c0.123-0.277,0.215-0.492,0.215-0.646c0-0.154-0.061-0.37-0.184-0.708l-5.51-13.727H485.471z"/>
		<path fill="#FFFFFF" d="M505.225,634.628c1.2,0.738,2.955,1.354,4.801,1.354c2.74,0,4.34-1.446,4.34-3.54
			c0-1.939-1.107-3.047-3.908-4.124c-3.386-1.2-5.479-2.955-5.479-5.878c0-3.231,2.678-5.632,6.709-5.632
			c2.124,0,3.662,0.492,4.586,1.016l-0.738,2.185c-0.678-0.37-2.063-0.985-3.939-0.985c-2.832,0-3.908,1.693-3.908,3.108
			c0,1.939,1.262,2.893,4.123,4.001c3.509,1.354,5.294,3.047,5.294,6.094c0,3.201-2.37,5.971-7.263,5.971
			c-2.001,0-4.187-0.584-5.295-1.323L505.225,634.628z"/>
		<path fill="#FFFFFF" d="M522.363,630.935c0.063,3.663,2.4,5.17,5.109,5.17c1.939,0,3.108-0.338,4.124-0.77l0.462,1.939
			c-0.954,0.431-2.586,0.923-4.955,0.923c-4.586,0-7.325-3.016-7.325-7.509c0-4.494,2.647-8.033,6.986-8.033
			c4.862,0,6.155,4.278,6.155,7.017c0,0.554-0.062,0.985-0.092,1.262H522.363z M530.305,628.996c0.03-1.724-0.709-4.401-3.756-4.401
			c-2.738,0-3.939,2.524-4.154,4.401H530.305z"/>
		<path fill="#FFFFFF" d="M536.271,627.642c0-1.754-0.031-3.263-0.123-4.647h2.37l0.093,2.924h0.123
			c0.676-2,2.308-3.262,4.123-3.262c0.309,0,0.523,0.031,0.77,0.092v2.554c-0.277-0.062-0.554-0.092-0.923-0.092
			c-1.908,0-3.263,1.447-3.632,3.478c-0.062,0.369-0.123,0.8-0.123,1.262v7.94h-2.678V627.642z"/>
		<path fill="#FFFFFF" d="M548.148,622.995l2.924,8.371c0.493,1.354,0.893,2.585,1.201,3.816h0.092
			c0.339-1.231,0.77-2.462,1.262-3.816l2.894-8.371h2.831l-5.848,14.896h-2.585l-5.663-14.896H548.148z"/>
		<path fill="#FFFFFF" d="M564.919,618.809c0.03,0.923-0.646,1.662-1.724,1.662c-0.953,0-1.631-0.738-1.631-1.662
			c0-0.954,0.708-1.693,1.693-1.693C564.273,617.116,564.919,617.855,564.919,618.809z M561.902,637.891v-14.896h2.709v14.896
			H561.902z"/>
		<path fill="#FFFFFF" d="M579.721,637.336c-0.707,0.37-2.277,0.862-4.277,0.862c-4.494,0-7.418-3.047-7.418-7.602
			c0-4.586,3.14-7.91,8.002-7.91c1.602,0,3.017,0.4,3.756,0.769l-0.615,2.093c-0.646-0.369-1.662-0.708-3.141-0.708
			c-3.416,0-5.262,2.523-5.262,5.632c0,3.447,2.215,5.571,5.17,5.571c1.539,0,2.555-0.4,3.324-0.739L579.721,637.336z"/>
		<path fill="#FFFFFF" d="M584.212,630.935c0.062,3.663,2.4,5.17,5.108,5.17c1.939,0,3.109-0.338,4.125-0.77l0.461,1.939
			c-0.953,0.431-2.585,0.923-4.955,0.923c-4.586,0-7.324-3.016-7.324-7.509c0-4.494,2.646-8.033,6.986-8.033
			c4.862,0,6.155,4.278,6.155,7.017c0,0.554-0.062,0.985-0.093,1.262H584.212z M592.152,628.996
			c0.031-1.724-0.708-4.401-3.755-4.401c-2.739,0-3.939,2.524-4.155,4.401H592.152z"/>
		<path fill="#FFFFFF" d="M597.75,635.121c0.801,0.523,2.217,1.077,3.57,1.077c1.971,0,2.893-0.985,2.893-2.216
			c0-1.292-0.769-2-2.77-2.739c-2.678-0.954-3.939-2.431-3.939-4.216c0-2.4,1.939-4.37,5.141-4.37c1.508,0,2.831,0.431,3.662,0.923
			l-0.678,1.97c-0.584-0.369-1.662-0.861-3.047-0.861c-1.6,0-2.492,0.923-2.492,2.031c0,1.231,0.893,1.785,2.831,2.523
			c2.585,0.985,3.909,2.278,3.909,4.494c0,2.616-2.031,4.462-5.571,4.462c-1.631,0-3.14-0.4-4.186-1.016L597.75,635.121z"/>
	</g>
	<g id="XMLID_177_">
		<path id="XMLID_187_" fill="#66A8DE" d="M-1606.742,1390.792c-14.074-0.366-27.816-1.984-41.149-4.697
			c21.506,6.847,44.405,10.571,68.18,10.571c72.37,0,136.7-34.273,177.763-87.434l-12.884-9.008
			C-1459.284,1357.03-1529.096,1392.81-1606.742,1390.792z"/>
		<path id="XMLID_186_" fill="#E7AD47" d="M-1375,1264.359c-7.244,16.052-16.306,31.097-26.948,44.874l32.634,22.816L-1375,1264.359
			z"/>
		<path id="XMLID_185_" fill="#E7AD47" d="M-1780.129,1273.34c-20.5-16.419-37.347-37.165-49.188-60.812
			c21.844,87.102,92.231,155.415,181.426,173.567C-1705.61,1367.718-1753.161,1326.631-1780.129,1273.34z"/>
		<path id="XMLID_178_" fill="#66A8DE" d="M-1480.341,970.764c4.141,5.147,8.203,10.15,12.449,14.962
			c4.444,5.038,9.029,9.319-3.387,12.172c6.697,2.485,11.769,3.197,16.841,5.079c-0.193,0.731-0.386,1.023-0.579,1.023
			c-2.627,0-5.254,0-7.882,0c-0.148,4-0.295,2.58-0.443,3.285c2.694,0.782,5.387,2.148,9.602,3.372
			c-2.878,3.266-5.14,6.666-7.931,9.189c-7.848,7.097-16.65,13.451-23.579,21.327c-3.411,3.877-3.591,10.716-5.088,16.214
			c-0.93,3.418-1.589,6.946-2.377,10.435c-11.631-2.347-22.374-3.729-28.318-14.633c-5.134-9.417-9.984-18.622,3.991-27.934
			c-1.4-0.197-2.8-0.39-4.2-0.588c-2.41,0.976-4.821,1.954-7.231,2.93c-0.553-0.885-1.106-1.768-1.658-2.653
			c2.493-1.607,4.986-3.214,5.993-3.863c-2.217-4.254-4.948-8.354-6.579-12.852c-3.581-9.877-9.509-15.81-20.738-13.203
			c-0.323-4.289-0.555-7.373-0.837-11.12c3.559-1.406,7.795-3.08,13.748-5.432c-8.353-4.455-7.649-3.481-13.391,0.673
			c-6.561,4.746-14.54,6.873-20.704,9.918c-3.551,5.058-6.707,9.934-10.946,14.934c-5.103,0-13.333,0-23.345,0
			c4.991-5,8.785-9.238,12.605-13.541c-1.256-1.359-2.667-2.558-3.796-3.78c5.357-1.398,10.506-2.577,16.573-4.16
			c-10.623-1.591-19.851-2.89-29.08-4.272c0.101-1.012,0.202-1.982,0.304-2.994c23.587-2.236,46.464-11.344,71.174-3.542
			c6.114,1.931,15.383-3.831,22.368-7.604c2.873-1.552,5.47-3.646,8.145-4.976c-22.344-7.453-46.224-11.548-71.073-11.548
			c-72.201,0-136.396,34.117-177.472,87.064c6.663,1.409,13.344,3.121,19.942,3.753c5.585,0.534,11.24,1.067,16.82,0.771
			c14.593-0.774,29.16-2.637,43.459,2.413c6.082,2.148,12.299,4.576,18.622,5.209c8.041,0.805,16.292,0.313,24.359-0.521
			c1.985-0.205,3.61-3.899,6.633-7.427c0.729,2.15,1.599,4.721,2.853,8.42c2.035-1.639,4.291-3.456,7.269-5.855
			c-4.435-3.897-12.466-6.667-4.077-13.078c6.295,6.699,12.296,13.087,18.305,19.483c7.96-6.762,7.952-7.542-0.308-13.024
			c-7.586-5.036-6.821-10.568,2.337-15.341c0.133,1.185,0.265,2.349,0.397,3.523c3.085-1.395,6.16-2.945,9.32-3.145
			c1.998-0.126,4.245,2.821,7.045,5.499c21.445-5.573,27.803,18.673,44.208,26.673c-4.281,0-8.561,0-14.216,0
			c2.545,4,4.97,7.306,7.845,11.021c-7.39,4.411-13.36,5.401-19.859-1.288c-2.41-2.479-7.675-1.962-9.086-2.308
			c2.738-4.045,7.608-8.23,8.423-13.193c0.734-4.463-15.51-10.078-23.267-8.743c0.427,4.048,0.854,8.128,0.962,9.152
			c-10.174,8.485-19.54,15.171-27.475,23.248c-7.999,8.143-5.583,14.418,5.578,18.447c2.736,0.988,5.213,2.712,7.959,3.657
			c6.776,2.332,13.675,4.225,15.078,12.975c0.192,1.199,2.71,2.026,4.335,3.152c6.28-12.871,7.578-25.654,3.992-39.454
			c10.093,0.119,18.295,0.557,21.873,11.43c0.51,1.548,7.241,1.049,14.225,1.862c4.401,5.25,11.475,13.692,20.64,24.627
			c-10.636,2.303-19.662,4.257-28.589,6.189c3.432,5.13,6.825,10.202,10.679,15.961c-2.467,0-5.624-0.281-8.704,0.084
			c-2.722,0.322-6.396,0.496-7.852,2.238c-6.226,7.444-11.81,15.427-17.566,23.26c-0.845,1.15-1.017,3.165-2.068,3.735
			c-10.314,5.59-13.939,13.422-6.434,25.328c-1.1-0.006-2.201-0.011-3.301-0.017c-1.296-1.664-2.391-3.549-3.929-4.945
			c-2.917-2.645-6.018-6.982-9.168-7.095c-7.408-0.266-15.602,0.028-22.081,3.069c-3.985,1.871-7.106,9.113-7.435,14.15
			c-0.275,4.21,3.094,10.502,6.707,12.482c2.457,1.346,8.083-3.254,12.371-5.003c1.619-0.66,3.458-0.78,6.262-1.371
			c-0.644,4.596-1.18,8.425-1.824,13.016c3.757,0.825,7.479,1.642,9.196,2.019c2.734,7.259,4.935,13.105,6.966,18.498
			c-1.175-0.64-5.142-1.661-7.354-4.207c-8.631-9.931-19.702-13.689-32.225-16.258c-8.5-1.744-16.486-5.001-20.816-15.672
			c-3.791-9.342-13.165-16.419-20.644-25.164c-0.524,2.274-0.92,3.99-1.146,4.97c-4.851-5-10.439-9.589-14.486-15.274
			c-3.748-5.265-8.777-12.03-8.16-17.568c2.532-22.729-11.497-37.428-23.959-52.516c-4.059-4.915-12.491-7.183-19.347-8.581
			c-8.7-1.774-18.085-2.889-26.672-1.396c-4.474,0.778-7.868,7.767-11.789,11.992c-2.072-2.498-3.393-4.984-5.45-6.4
			c-0.916-0.63-1.851-1.231-2.784-1.836c-12.594,28.047-19.658,59.116-19.658,91.853c0,36.425,8.728,70.792,24.122,101.213
			c29.922,23.965,67.627,38.709,108.909,39.781c29.868,0.776,58.22-5.715,83.405-17.832c0,0,47.035-28.92,60.326-46.728
			c4.775-5.651,9.22-11.594,13.291-17.808l-43.269-30.252l171.224-69.963l11.242,133.821c12.702-28.146,19.829-59.348,19.829-92.232
			C-1355.17,1083.804-1406.188,1007.429-1480.341,970.764z M-1675.479,1042c-0.121,0-0.242-2.836-0.363-3.903
			c2.165-0.908,4.33-2.167,5.474-2.647c-3.233-2.862-6.98-6.354-10.727-9.671c-5.425,1.122-10.29,10.157-16.24,1.067
			c1.299-16.098,11.446-10.489,21.025-8.008c-1.406,2.079-2.664,3.916-3.921,5.775c9.409-0.825,19.413-3.221,28.009-0.96
			c5.408,1.423,8.707,11.347,13.642,18.347C-1652.787,1042-1664.133,1042-1675.479,1042z M-1623.72,986.55
			c1.57-2.126,3.467-4.695,6.043-8.183c5.803,3.773,11.137,7.243,17.037,11.079C-1611.846,999.509-1618.155,995.165-1623.72,986.55z
			 M-1614.66,1007.634c9.844,1.124,19.807,2.262,32.267,3.685C-1598.562,1018.186-1613.518,1015.042-1614.66,1007.634z
			 M-1535.784,1244.33c-10.089,10.151-35.934,35.234-55.691,46.473c-7.333-10.905-8.25-26.691-1.352-37.572
			c1.104-1.742,1.672-4.021,1.867-6.109c1.349-14.43,8.191-19.789,21.632-15.447
			C-1557.968,1235.345-1546.873,1239.854-1535.784,1244.33z M-1463.432,1035.577c8.06,0.443,15.174,0.833,22.288,1.224
			C-1453.402,1049.062-1458.309,1048.172-1463.432,1035.577z"/>
	</g>
	<g id="XMLID_1_">
		<path id="XMLID_21_" fill="#FFFFFF" d="M-556.742,594.792c-14.074-0.366-27.816-1.984-41.149-4.697
			c21.506,6.847,44.405,10.572,68.18,10.572c72.37,0,136.7-34.273,177.763-87.434l-12.884-9.008
			C-409.284,561.03-479.096,596.81-556.742,594.792z"/>
		<path id="XMLID_20_" fill="#FFFFFF" d="M-325,468.359c-7.244,16.052-16.306,31.097-26.948,44.874l32.634,22.816L-325,468.359z"/>
		<path id="XMLID_19_" fill="#FFFFFF" d="M-730.129,477.34c-20.5-16.419-37.347-37.165-49.188-60.812
			c21.844,87.102,92.231,155.415,181.426,173.567C-655.61,571.718-703.161,530.631-730.129,477.34z"/>
		<path id="XMLID_2_" fill="#FFFFFF" d="M-430.341,174.764c4.141,5.147,8.204,10.15,12.449,14.962
			c4.444,5.037,9.029,9.319-3.387,12.172c6.697,2.485,11.769,3.197,16.841,5.079c-0.193,0.731-0.386,1.023-0.579,1.023
			c-2.627,0-5.254,0-7.882,0c-0.148,4-0.295,2.58-0.443,3.285c2.694,0.782,5.387,2.148,9.602,3.372
			c-2.878,3.266-5.14,6.666-7.931,9.189c-7.848,7.097-16.65,13.451-23.579,21.327c-3.411,3.877-3.591,10.716-5.088,16.214
			c-0.93,3.418-1.589,6.946-2.377,10.435c-11.631-2.347-22.374-3.73-28.318-14.633c-5.134-9.417-9.984-18.622,3.991-27.934
			c-1.4-0.197-2.8-0.39-4.2-0.588c-2.41,0.976-4.821,1.954-7.231,2.93c-0.553-0.884-1.106-1.768-1.658-2.653
			c2.493-1.607,4.986-3.214,5.993-3.863c-2.217-4.254-4.948-8.354-6.579-12.852c-3.581-9.876-9.509-15.81-20.738-13.203
			c-0.323-4.29-0.555-7.373-0.837-11.12c3.559-1.406,7.795-3.08,13.748-5.432c-8.353-4.455-7.649-3.481-13.391,0.673
			c-6.561,4.746-14.54,6.873-20.704,9.918c-3.551,5.058-6.707,9.934-10.946,14.934c-5.103,0-13.333,0-23.346,0
			c4.991-5,8.785-9.238,12.605-13.54c-1.256-1.359-2.667-2.558-3.796-3.78c5.357-1.398,10.506-2.577,16.573-4.16
			c-10.623-1.591-19.851-2.89-29.08-4.272c0.101-1.012,0.202-1.982,0.304-2.994c23.587-2.236,46.465-11.344,71.174-3.542
			c6.114,1.931,15.383-3.831,22.368-7.604c2.873-1.552,5.471-3.646,8.145-4.976c-22.344-7.453-46.224-11.548-71.074-11.548
			c-72.201,0-136.396,34.117-177.472,87.065c6.663,1.409,13.344,3.121,19.942,3.753c5.585,0.534,11.24,1.067,16.82,0.771
			c14.593-0.774,29.16-2.637,43.459,2.413c6.082,2.148,12.299,4.576,18.622,5.209c8.041,0.805,16.292,0.313,24.359-0.521
			c1.985-0.205,3.61-3.899,6.633-7.427c0.728,2.15,1.599,4.721,2.853,8.42c2.035-1.639,4.291-3.456,7.269-5.855
			c-4.435-3.897-12.466-6.667-4.076-13.078c6.294,6.699,12.296,13.087,18.305,19.483c7.96-6.762,7.952-7.542-0.308-13.024
			c-7.586-5.036-6.821-10.568,2.337-15.341c0.133,1.184,0.265,2.349,0.397,3.523c3.085-1.395,6.16-2.945,9.32-3.145
			c1.998-0.126,4.245,2.821,7.045,5.499C-512.76,223.754-506.402,248-489.997,256c-4.281,0-8.561,0-14.216,0
			c2.545,4,4.97,7.306,7.845,11.021c-7.39,4.411-13.36,5.401-19.859-1.288c-2.409-2.48-7.675-1.962-9.086-2.308
			c2.738-4.045,7.608-8.23,8.423-13.193c0.733-4.463-15.51-10.078-23.267-8.743c0.427,4.048,0.854,8.128,0.962,9.152
			c-10.174,8.485-19.54,15.171-27.475,23.248c-7.999,8.143-5.583,14.418,5.579,18.447c2.736,0.988,5.212,2.712,7.959,3.657
			c6.776,2.332,13.675,4.225,15.078,12.975c0.192,1.199,2.71,2.026,4.335,3.152c6.28-12.871,7.578-25.654,3.992-39.454
			c10.093,0.119,18.295,0.557,21.874,11.43c0.51,1.548,7.241,1.049,14.225,1.862c4.401,5.251,11.475,13.692,20.64,24.627
			c-10.636,2.303-19.662,4.257-28.589,6.189c3.432,5.13,6.825,10.202,10.679,15.961c-2.467,0-5.624-0.281-8.704,0.084
			c-2.722,0.322-6.395,0.496-7.852,2.238c-6.226,7.444-11.81,15.427-17.566,23.26c-0.845,1.15-1.018,3.165-2.068,3.734
			c-10.314,5.59-13.939,13.422-6.434,25.328c-1.1-0.006-2.201-0.011-3.301-0.017c-1.296-1.664-2.391-3.549-3.93-4.945
			c-2.917-2.645-6.018-6.982-9.168-7.095c-7.408-0.266-15.602,0.028-22.081,3.069c-3.985,1.871-7.106,9.113-7.435,14.15
			c-0.275,4.21,3.094,10.502,6.707,12.482c2.457,1.346,8.083-3.254,12.371-5.003c1.619-0.66,3.458-0.78,6.263-1.371
			c-0.644,4.596-1.18,8.425-1.824,13.016c3.757,0.825,7.479,1.642,9.196,2.019c2.734,7.259,4.935,13.105,6.966,18.498
			c-1.175-0.64-5.142-1.661-7.354-4.207c-8.631-9.931-19.702-13.689-32.225-16.258c-8.501-1.744-16.486-5.001-20.816-15.672
			c-3.791-9.342-13.165-16.419-20.644-25.164c-0.524,2.274-0.92,3.99-1.146,4.97c-4.851-5-10.439-9.589-14.486-15.274
			c-3.748-5.265-8.777-12.03-8.16-17.568c2.532-22.729-11.497-37.428-23.959-52.516c-4.059-4.915-12.491-7.183-19.347-8.581
			c-8.7-1.774-18.085-2.889-26.672-1.396c-4.474,0.778-7.868,7.767-11.789,11.992c-2.072-2.499-3.393-4.984-5.45-6.4
			c-0.916-0.63-1.852-1.231-2.784-1.836c-12.594,28.047-19.658,59.116-19.658,91.852c0,36.425,8.728,70.792,24.122,101.213
			c29.922,23.965,67.627,38.709,108.909,39.781c29.868,0.776,58.22-5.715,83.405-17.832c0,0,47.035-28.92,60.326-46.728
			c4.775-5.651,9.22-11.594,13.291-17.808l-43.269-30.252l171.224-69.963L-325,468.359c12.702-28.146,19.83-59.348,19.83-92.232
			C-305.17,287.804-356.188,211.429-430.341,174.764z M-625.479,246c-0.121,0-0.242-2.836-0.363-3.903
			c2.165-0.908,4.331-2.167,5.474-2.647c-3.233-2.862-6.98-6.354-10.727-9.671c-5.425,1.122-10.29,10.157-16.24,1.067
			c1.299-16.098,11.446-10.489,21.025-8.008c-1.407,2.079-2.664,3.916-3.921,5.775c9.409-0.825,19.412-3.222,28.009-0.96
			c5.408,1.423,8.707,11.347,13.642,18.347C-602.787,246-614.133,246-625.479,246z M-573.72,190.55
			c1.57-2.126,3.467-4.695,6.043-8.183c5.803,3.774,11.137,7.243,17.037,11.079C-561.846,203.509-568.155,199.165-573.72,190.55z
			 M-564.66,211.634c9.844,1.124,19.807,2.262,32.267,3.685C-548.562,222.186-563.518,219.042-564.66,211.634z M-485.784,448.33
			c-10.089,10.151-35.934,35.234-55.691,46.473c-7.333-10.905-8.25-26.691-1.352-37.572c1.104-1.742,1.672-4.021,1.867-6.109
			c1.349-14.43,8.191-19.789,21.632-15.447C-507.968,439.345-496.873,443.854-485.784,448.33z M-413.432,239.576
			c8.06,0.443,15.174,0.833,22.288,1.224C-403.402,253.062-408.309,252.172-413.432,239.576z"/>
	</g>
	<g id="XMLID_215_">
		<path id="XMLID_225_" d="M486.258,1375.792c-14.074-0.366-27.816-1.984-41.149-4.697c21.506,6.847,44.405,10.571,68.18,10.571
			c72.37,0,136.7-34.273,177.763-87.434l-12.884-9.008C633.716,1342.03,563.904,1377.81,486.258,1375.792z"/>
		<path id="XMLID_224_" d="M718,1249.359c-7.244,16.052-16.306,31.097-26.948,44.874l32.634,22.816L718,1249.359z"/>
		<path id="XMLID_223_" d="M312.871,1258.34c-20.5-16.419-37.347-37.165-49.188-60.812
			c21.844,87.102,92.231,155.415,181.426,173.567C387.39,1352.718,339.839,1311.631,312.871,1258.34z"/>
		<path id="XMLID_216_" d="M612.659,955.764c4.141,5.147,8.204,10.15,12.449,14.962c4.444,5.038,9.029,9.319-3.387,12.172
			c6.697,2.485,11.769,3.197,16.841,5.079c-0.193,0.731-0.386,1.023-0.579,1.023c-2.627,0-5.254,0-7.882,0
			c-0.148,4-0.295,2.58-0.443,3.285c2.694,0.782,5.387,2.148,9.602,3.372c-2.878,3.266-5.14,6.666-7.931,9.189
			c-7.848,7.097-16.65,13.451-23.579,21.327c-3.411,3.877-3.591,10.716-5.088,16.214c-0.93,3.418-1.589,6.946-2.377,10.435
			c-11.631-2.347-22.374-3.729-28.318-14.633c-5.134-9.417-9.984-18.622,3.991-27.934c-1.4-0.197-2.8-0.39-4.2-0.588
			c-2.41,0.976-4.821,1.954-7.231,2.93c-0.553-0.884-1.106-1.768-1.658-2.653c2.493-1.607,4.986-3.214,5.993-3.863
			c-2.217-4.254-4.948-8.354-6.579-12.852c-3.581-9.877-9.509-15.81-20.738-13.203c-0.323-4.289-0.555-7.373-0.837-11.12
			c3.559-1.406,7.795-3.08,13.748-5.432c-8.353-4.455-7.649-3.481-13.391,0.673c-6.561,4.746-14.54,6.873-20.704,9.918
			c-3.551,5.058-6.707,9.934-10.946,14.934c-5.103,0-13.333,0-23.346,0c4.991-5,8.785-9.238,12.605-13.541
			c-1.256-1.359-2.667-2.558-3.796-3.78c5.357-1.398,10.506-2.577,16.573-4.16c-10.623-1.591-19.851-2.89-29.08-4.272
			c0.101-1.012,0.202-1.982,0.304-2.994c23.587-2.236,46.465-11.344,71.174-3.542c6.114,1.931,15.383-3.831,22.368-7.604
			c2.873-1.552,5.471-3.646,8.145-4.976c-22.344-7.453-46.224-11.548-71.073-11.548c-72.201,0-136.396,34.117-177.472,87.065
			c6.663,1.409,13.344,3.121,19.942,3.753c5.585,0.534,11.24,1.067,16.82,0.771c14.593-0.774,29.16-2.637,43.459,2.413
			c6.082,2.148,12.299,4.576,18.622,5.209c8.041,0.805,16.292,0.313,24.359-0.521c1.985-0.205,3.61-3.899,6.633-7.427
			c0.728,2.15,1.6,4.721,2.853,8.42c2.035-1.639,4.291-3.456,7.269-5.855c-4.435-3.897-12.466-6.667-4.077-13.078
			c6.294,6.699,12.296,13.087,18.305,19.483c7.96-6.762,7.952-7.542-0.308-13.024c-7.586-5.036-6.821-10.568,2.337-15.341
			c0.133,1.185,0.265,2.349,0.397,3.523c3.085-1.395,6.16-2.945,9.32-3.145c1.998-0.126,4.245,2.821,7.045,5.499
			c21.445-5.573,27.803,18.673,44.207,26.673c-4.281,0-8.561,0-14.216,0c2.545,4,4.97,7.306,7.845,11.021
			c-7.39,4.411-13.36,5.401-19.859-1.288c-2.409-2.479-7.675-1.962-9.086-2.308c2.738-4.045,7.608-8.23,8.423-13.193
			c0.733-4.463-15.51-10.078-23.267-8.743c0.427,4.048,0.854,8.128,0.962,9.152c-10.174,8.485-19.54,15.171-27.475,23.248
			c-7.999,8.143-5.583,14.418,5.579,18.447c2.736,0.988,5.212,2.712,7.959,3.657c6.776,2.332,13.675,4.225,15.078,12.975
			c0.192,1.199,2.71,2.026,4.335,3.152c6.28-12.871,7.578-25.654,3.992-39.454c10.093,0.119,18.295,0.557,21.874,11.43
			c0.51,1.548,7.241,1.049,14.224,1.862c4.401,5.25,11.475,13.692,20.64,24.627c-10.636,2.303-19.662,4.257-28.589,6.189
			c3.432,5.13,6.825,10.202,10.679,15.961c-2.467,0-5.624-0.281-8.704,0.084c-2.722,0.322-6.396,0.496-7.852,2.238
			c-6.226,7.444-11.81,15.427-17.566,23.26c-0.845,1.15-1.018,3.165-2.068,3.735c-10.314,5.59-13.939,13.422-6.434,25.328
			c-1.1-0.006-2.201-0.011-3.301-0.017c-1.296-1.664-2.391-3.549-3.93-4.945c-2.917-2.645-6.018-6.982-9.168-7.095
			c-7.408-0.266-15.602,0.028-22.081,3.069c-3.985,1.871-7.106,9.113-7.435,14.15c-0.275,4.21,3.094,10.502,6.707,12.482
			c2.457,1.346,8.083-3.254,12.371-5.003c1.619-0.66,3.458-0.78,6.262-1.371c-0.644,4.596-1.18,8.425-1.824,13.016
			c3.757,0.825,7.479,1.642,9.196,2.019c2.734,7.259,4.935,13.105,6.966,18.498c-1.175-0.64-5.142-1.661-7.354-4.207
			c-8.631-9.931-19.702-13.689-32.225-16.258c-8.5-1.744-16.486-5.001-20.816-15.672c-3.791-9.342-13.165-16.419-20.644-25.164
			c-0.524,2.274-0.92,3.99-1.146,4.97c-4.851-5-10.439-9.589-14.486-15.274c-3.748-5.265-8.777-12.03-8.16-17.568
			c2.532-22.729-11.497-37.428-23.959-52.516c-4.059-4.915-12.491-7.183-19.347-8.581c-8.7-1.774-18.085-2.889-26.672-1.396
			c-4.474,0.778-7.868,7.767-11.789,11.992c-2.072-2.498-3.393-4.984-5.45-6.4c-0.916-0.63-1.852-1.231-2.784-1.836
			c-12.594,28.047-19.658,59.116-19.658,91.853c0,36.425,8.728,70.792,24.122,101.213c29.922,23.965,67.627,38.709,108.909,39.781
			c29.868,0.776,58.22-5.715,83.405-17.832c0,0,47.035-28.92,60.326-46.728c4.775-5.651,9.22-11.594,13.291-17.808l-43.269-30.252
			l171.224-69.963L718,1249.359c12.702-28.146,19.83-59.348,19.83-92.232C737.83,1068.804,686.812,992.429,612.659,955.764z
			 M417.521,1027c-0.121,0-0.242-2.836-0.363-3.903c2.165-0.908,4.331-2.167,5.474-2.647c-3.233-2.862-6.98-6.354-10.727-9.671
			c-5.425,1.122-10.29,10.157-16.24,1.067c1.299-16.098,11.446-10.489,21.025-8.008c-1.407,2.079-2.664,3.916-3.921,5.775
			c9.409-0.825,19.413-3.222,28.009-0.96c5.408,1.423,8.707,11.347,13.642,18.347C440.213,1027,428.867,1027,417.521,1027z
			 M469.28,971.55c1.57-2.126,3.467-4.695,6.043-8.183c5.803,3.773,11.137,7.243,17.037,11.079
			C481.154,984.509,474.845,980.165,469.28,971.55z M478.34,992.634c9.844,1.124,19.807,2.262,32.267,3.685
			C494.438,1003.186,479.482,1000.042,478.34,992.634z M557.216,1229.33c-10.089,10.151-35.934,35.234-55.691,46.473
			c-7.333-10.905-8.25-26.691-1.352-37.572c1.104-1.742,1.672-4.021,1.867-6.109c1.349-14.43,8.191-19.789,21.632-15.447
			C535.032,1220.345,546.127,1224.854,557.216,1229.33z M629.568,1020.576c8.06,0.443,15.174,0.833,22.288,1.224
			C639.598,1034.062,634.691,1033.172,629.568,1020.576z"/>
	</g>
	<g>
	</g>
	<g>
	</g>
	<g>
	</g>
	<g>
	</g>
	<g>
	</g>
	<g>
	</g>
	<g>
	</g>
	<g>
	</g>
	<g>
	</g>
	<g>
	</g>
	<g>
	</g>
	<g>
	</g>
	<g>
	</g>
	<g>
	</g>
	<g>
	</g>
</g>
</svg>
