<?xml version="1.0" encoding="UTF-8" standalone="no"?>
<svg
   xmlns:dc="http://purl.org/dc/elements/1.1/"
   xmlns:cc="http://creativecommons.org/ns#"
   xmlns:rdf="http://www.w3.org/1999/02/22-rdf-syntax-ns#"
   xmlns:svg="http://www.w3.org/2000/svg"
   xmlns="http://www.w3.org/2000/svg"
   xmlns:sodipodi="http://sodipodi.sourceforge.net/DTD/sodipodi-0.dtd"
   xmlns:inkscape="http://www.inkscape.org/namespaces/inkscape"
   style="enable-background:new 0 0 500 500;"
   version="1.1"
   viewBox="0 0 500 500"
   xml:space="preserve"
   id="svg2"
   inkscape:version="0.91 r"
   sodipodi:docname="responsive.svg"><metadata
     id="metadata19"><rdf:RDF><cc:Work
         rdf:about=""><dc:format>image/svg+xml</dc:format><dc:type
           rdf:resource="http://purl.org/dc/dcmitype/StillImage" /><dc:title></dc:title></cc:Work></rdf:RDF></metadata><defs
     id="defs17" /><sodipodi:namedview
     pagecolor="#ffffff"
     bordercolor="#666666"
     borderopacity="1"
     objecttolerance="10"
     gridtolerance="10"
     guidetolerance="10"
     inkscape:pageopacity="0"
     inkscape:pageshadow="2"
     inkscape:window-width="1855"
     inkscape:window-height="1056"
     id="namedview15"
     showgrid="false"
     inkscape:zoom="0.944"
     inkscape:cx="314.39696"
     inkscape:cy="322.86618"
     inkscape:window-x="65"
     inkscape:window-y="24"
     inkscape:window-maximized="1"
     inkscape:current-layer="g5" /><g
     id="computer-devices-responsive"><g
       id="g5"><ellipse
         style="fill:#ffffff;fill-opacity:1"
         id="path4149"
         cx="250.00002"
         cy="249.47034"
         rx="250"
         ry="249.47034" /><circle
         cx="250"
         cy="-250"
         r="250"
         style="fill:#caccb6;fill-opacity:1"
         id="circle7"
         transform="scale(1,-1)" /><path
         inkscape:connector-curvature="0"
         id="large-screen"
         style="fill:#8e9e82;fill-opacity:1"
         d="m 270.052,341.998 3.358,7.183 c 0,0 0,2.105 -1.405,2.105 -1.399,0 -79.085,0 -80.49,0 -1.399,0 -1.747,-2.105 -1.747,-2.105 l 3.353,-7.183 76.931,0 z m -0.162,-15.251 -76.97,0 0,13.493 76.97,0 0,-13.493 z m -153.039,-34.549 0,-126.063 223.253,0 0,14.366 14.643,0 0,-24.777 c 0,-3.857 -3.152,-7.01 -7.01,-7.01 l -237.95,0 c -3.857,0 -7.009,3.152 -7.009,7.01 l 0,140.175 0,3.299 0,16.385 c 0,4.318 3.152,7.872 7.009,7.872 l 188.107,0 0,-31.256 -181.043,0 z" /><path
         inkscape:connector-curvature="0"
         id="path12"
         style="fill:#8e9e82;fill-opacity:1"
         d="m 380.339,188.911 -57.156,0 c -9.294,0 -16.89,7.601 -16.89,16.878 l 0,128.602 c 0,9.288 7.596,16.895 16.89,16.895 l 57.156,0 c 9.288,0 16.884,-7.606 16.884,-16.895 l 0,-128.602 c 0,-9.277 -7.596,-16.878 -16.884,-16.878 z m -38.971,4.931 c 0,-0.564 0.934,-1.037 2.072,-1.037 l 16.64,0 c 1.14,0 2.072,0.472 2.072,1.037 l 0,0.526 c 0,0.564 -0.933,1.037 -2.072,1.037 l -16.64,0 c -1.139,0 -2.072,-0.472 -2.072,-1.037 l 0,-0.526 z m 12.343,6.115 c 0,1.074 -0.879,1.948 -1.953,1.948 -1.074,0 -1.953,-0.874 -1.953,-1.948 0,-1.085 0.879,-1.959 1.953,-1.959 1.074,0 1.953,0.874 1.953,1.959 z m 8.441,142.746 c 0,1.145 -0.933,2.083 -2.072,2.083 l -16.64,0 c -1.139,0 -2.072,-0.938 -2.072,-2.083 l 0,-1.036 c 0,-1.14 0.934,-2.067 2.072,-2.067 l 16.64,0 c 1.14,0 2.072,0.928 2.072,2.067 l 0,1.036 z m 28.066,-8.311 -75.716,0 0,-128.603 75.716,0 0,128.603 z" /></g></g><g
     id="Layer_1" /></svg>