<?xml version="1.0" encoding="utf-8"?>
<!-- Generator: Adobe Illustrator 17.0.0, SVG Export Plug-In . SVG Version: 6.00 Build 0)  -->
<!DOCTYPE svg PUBLIC "-//W3C//DTD SVG 1.1//EN" "http://www.w3.org/Graphics/SVG/1.1/DTD/svg11.dtd">
<svg version="1.1"
	 id="svg2" xmlns:dc="http://purl.org/dc/elements/1.1/" xmlns:cc="http://creativecommons.org/ns#" xmlns:rdf="http://www.w3.org/1999/02/22-rdf-syntax-ns#" xmlns:svg="http://www.w3.org/2000/svg" xmlns:sodipodi="http://sodipodi.sourceforge.net/DTD/sodipodi-0.dtd" xmlns:inkscape="http://www.inkscape.org/namespaces/inkscape" sodipodi:docname="responsive.svg" inkscape:version="0.91 r"
	 xmlns="http://www.w3.org/2000/svg" xmlns:xlink="http://www.w3.org/1999/xlink" x="0px" y="0px" width="512px" height="512px"
	 viewBox="0 0 512 512" enable-background="new 0 0 512 512" xml:space="preserve">
<sodipodi:namedview  inkscape:cy="322.86618" inkscape:cx="314.39696" inkscape:zoom="0.944" showgrid="false" guidetolerance="10" gridtolerance="10" objecttolerance="10" borderopacity="1" pagecolor="#ffffff" bordercolor="#666666" id="namedview15" inkscape:current-layer="g5" inkscape:window-maximized="1" inkscape:window-y="24" inkscape:window-x="65" inkscape:window-height="1056" inkscape:window-width="1855" inkscape:pageshadow="2" inkscape:pageopacity="0">
	</sodipodi:namedview>
<ellipse id="path4149" fill="none" stroke="#FFFFFF" stroke-width="3.9417" stroke-miterlimit="10" cx="256" cy="255.458" rx="252" ry="252"/>
<circle id="circle7" fill="none" stroke="#FFFFFF" stroke-width="4" stroke-miterlimit="10" cx="256" cy="256" r="252"/>
<path id="large-screen" inkscape:connector-curvature="0" fill="#FFFFFF" d="M276.533,350.206l3.439,7.355c0,0,0,2.156-1.439,2.156
	c-1.433,0-80.983,0-82.422,0c-1.433,0-1.789-2.156-1.789-2.156l3.433-7.355H276.533z M276.367,334.589H197.55v13.817h78.817V334.589
	z M119.655,299.211V170.122h228.611v14.711h14.994v-25.372c0-3.95-3.228-7.178-7.178-7.178H112.422c-3.95,0-7.177,3.228-7.177,7.178
	v143.539v3.378v16.778c0,4.422,3.228,8.061,7.177,8.061h192.622v-32.006H119.655L119.655,299.211z"/>
<path id="path12" inkscape:connector-curvature="0" fill="#FFFFFF" d="M389.467,193.445h-58.528
	c-9.517,0-17.295,7.783-17.295,17.283v131.688c0,9.511,7.778,17.3,17.295,17.3h58.528c9.511,0,17.289-7.789,17.289-17.3V210.728
	C406.756,201.228,398.978,193.445,389.467,193.445L389.467,193.445z M349.561,198.494c0-0.578,0.956-1.062,2.122-1.062h17.039
	c1.167,0,2.122,0.483,2.122,1.062v0.539c0,0.578-0.955,1.062-2.122,1.062h-17.039c-1.166,0-2.122-0.483-2.122-1.062L349.561,198.494
	L349.561,198.494z M362.2,204.756c0,1.1-0.9,1.995-2,1.995c-1.1,0-2-0.895-2-1.995c0-1.111,0.9-2.006,2-2.006
	C361.3,202.75,362.2,203.645,362.2,204.756z M370.844,350.928c0,1.172-0.955,2.133-2.122,2.133h-17.039
	c-1.166,0-2.122-0.96-2.122-2.133v-1.061c0-1.167,0.956-2.117,2.122-2.117h17.039c1.167,0,2.122,0.95,2.122,2.117L370.844,350.928
	L370.844,350.928z M399.583,342.417H322.05V210.728h77.533V342.417z"/>
<g id="Layer_1">
</g>
</svg>
